<svg width="20" height="20" viewBox="0 0 20 20" fill="none" xmlns="http://www.w3.org/2000/svg">
<g clip-path="url(#clip0_96_128)">
<path d="M3.33331 15V9.1667M6.66665 15V9.1667M9.99998 15V9.1667M13.3333 15V9.1667M16.6666 15V9.1667M0.833313 18.3334H19.1666M10.3083 1.7917L17.8083 4.7917C18.1 4.90837 18.3333 5.25837 18.3333 5.5667V8.33336C18.3333 8.7917 17.9583 9.1667 17.5 9.1667H2.49998C2.04165 9.1667 1.66665 8.7917 1.66665 8.33336V5.5667C1.66665 5.25837 1.89998 4.90837 2.19165 4.7917L9.69165 1.7917C9.85831 1.72503 10.1416 1.72503 10.3083 1.7917ZM18.3333 18.3334H1.66665V15.8334C1.66665 15.375 2.04165 15 2.49998 15H17.5C17.9583 15 18.3333 15.375 18.3333 15.8334V18.3334Z" stroke="#333333" stroke-width="1.5" stroke-miterlimit="10" stroke-linecap="round" stroke-linejoin="round"/>
<path d="M10 7.08325C10.1642 7.08325 10.3267 7.05092 10.4784 6.9881C10.63 6.92528 10.7678 6.83321 10.8839 6.71714C11 6.60106 11.092 6.46326 11.1548 6.31161C11.2177 6.15995 11.25 5.9974 11.25 5.83325C11.25 5.6691 11.2177 5.50655 11.1548 5.3549C11.092 5.20324 11 5.06544 10.8839 4.94937C10.7678 4.8333 10.63 4.74122 10.4784 4.6784C10.3267 4.61558 10.1642 4.58325 10 4.58325C9.66848 4.58325 9.35054 4.71495 9.11612 4.94937C8.8817 5.18379 8.75 5.50173 8.75 5.83325C8.75 6.16477 8.8817 6.48272 9.11612 6.71714C9.35054 6.95156 9.66848 7.08325 10 7.08325Z" stroke="#333333" stroke-width="1.5" stroke-miterlimit="10" stroke-linecap="round" stroke-linejoin="round"/>
</g>
<defs>
<clipPath id="clip0_96_128">
<rect width="20" height="20" fill="white"/>
</clipPath>
</defs>
</svg>
