<svg width="44" height="45" viewBox="0 0 44 45" fill="none" xmlns="http://www.w3.org/2000/svg">
<g clip-path="url(#clip0_398_28)">
<path d="M30.7431 45C30.5812 44.0639 30.4211 43.1278 30.2575 42.1917C30.2425 42.1066 30.2125 42.0232 30.1808 41.913C29.8337 41.7829 29.4849 41.6511 29.1095 41.5076C28.2602 42.0632 27.4125 42.6189 26.5965 43.1512C25.6521 42.1917 24.7543 41.2789 23.8015 40.3111C24.3138 39.5319 24.8711 38.6859 25.3567 37.9467C25.3534 36.7469 24.5608 36.6668 23.7682 36.57C23.2442 36.5066 22.7253 36.4132 22.1679 36.3281V32.4184C22.6752 32.3217 23.1908 32.2232 23.7048 32.1281C23.8132 32.1081 23.925 32.1014 24.0351 32.0997C24.8795 32.0864 25.33 31.6542 25.4101 30.7465C24.8928 30.0223 24.3405 29.2497 23.8182 28.5172C24.7677 27.5794 25.6904 26.6683 26.6683 25.7038C27.1488 26.0392 27.7629 26.4013 28.2969 26.8569C28.8942 27.3675 29.4566 27.4359 30.1457 26.9052C30.3226 26.0092 30.5128 25.0397 30.7114 24.0335H34.6244C34.7929 25.0113 34.9614 25.9858 35.1233 26.9186C35.1967 26.9787 35.2267 27.017 35.2651 27.0321C36.3164 27.4609 36.0461 27.4743 36.9188 26.8468C37.4727 26.448 38.0234 26.0426 38.5624 25.6521C39.4684 26.5665 40.3395 27.4425 41.2739 28.3853C40.76 29.1679 40.2043 30.0106 39.6854 30.7999C39.6787 30.895 39.6687 30.92 39.6754 30.9384C39.9941 31.9045 39.9924 31.9179 40.9635 32.0714C41.6811 32.1848 42.4053 32.2566 43.1261 32.345V36.3398C42.1316 36.52 41.1388 36.6985 40.1359 36.8787C39.9924 37.2842 39.8672 37.633 39.7338 38.0101C40.3245 38.8394 40.9085 39.6604 41.4157 40.3729C40.4446 41.349 39.5435 42.2551 38.5957 43.2096C37.8115 42.6923 36.9688 42.1366 36.1378 41.5893C35.7724 41.7378 35.4687 41.8613 35.0832 42.0198C34.9247 43.0027 34.7645 43.9988 34.6043 44.995H30.7431V45ZM26.0926 28.5722C26.6332 29.3732 27.1138 30.0857 27.6127 30.8266C26.9102 31.5758 26.7517 32.5269 26.5281 33.4413C25.6404 33.6132 24.8011 33.7767 23.9484 33.9419V34.7796C24.8061 34.9531 25.6421 35.1216 26.4614 35.2885C26.8335 36.2263 27.1906 37.1274 27.566 38.0701C27.1004 38.7493 26.6149 39.4568 26.0759 40.2427C26.3045 40.4596 26.4897 40.6365 26.715 40.8484C27.5243 40.3195 28.2785 39.8256 28.9426 39.3917C29.9338 39.8256 30.8399 40.2227 31.7493 40.6215C31.8227 41.0487 31.8978 41.4625 31.9662 41.8763C32.033 42.2835 32.0947 42.6906 32.1581 43.0961H33.0075C33.1793 42.1934 33.3395 41.349 33.5014 40.498C34.4391 40.1209 35.3552 39.7521 36.293 39.375C36.9822 39.8456 37.6897 40.3312 38.4372 40.8418C38.6725 40.5981 38.8611 40.4029 39.058 40.201C38.499 39.4284 37.9817 38.7159 37.5261 38.0868C37.9617 37.084 38.3571 36.1779 38.7493 35.2752C39.4184 35.115 40.0625 34.9631 40.7049 34.8046C41.334 34.6478 41.3857 34.5343 41.1354 33.8234C40.3178 33.7 39.4718 33.5715 38.6291 33.4447C38.257 32.5219 37.8966 31.6242 37.5044 30.6514C37.9516 29.9956 38.4456 29.2697 38.9678 28.5038C38.7543 28.3036 38.5874 28.1501 38.4155 27.9899C37.6396 28.5455 36.9254 29.0561 36.308 29.4983C35.2952 29.0661 34.4041 28.6857 33.503 28.3002C33.3695 27.4776 33.2361 26.6566 33.0959 25.7906C32.7722 25.8073 32.5202 25.8206 32.2399 25.8356C32.0697 26.74 31.9095 27.581 31.7643 28.3486C30.7681 28.7474 29.8671 29.1079 28.9393 29.4783C28.2051 28.9844 27.4759 28.4938 26.6783 27.9582C26.473 28.1734 26.3078 28.3453 26.0909 28.5739L26.0926 28.5722Z" fill="#326789"/>
<path d="M22.3515 27.289C20.7479 29.5801 19.967 32.1264 20.0604 34.9164C20.1255 36.847 20.6545 38.6692 21.5672 40.3745C21.6707 40.5681 21.7758 40.76 21.8693 40.9285C21.8459 40.9869 21.8426 41.0119 21.8292 41.027C21.8159 41.0436 21.7942 41.0603 21.7741 41.062C21.5989 41.0753 21.4221 41.0954 21.2469 41.097C14.2152 41.0987 7.18185 41.097 0.146847 41.097C-0.0634021 40.6548 0.00167501 40.2243 0.0517343 39.8222C0.203581 38.6091 0.478907 37.4294 1.09631 36.3481C1.99571 34.7745 3.29892 33.6115 4.8858 32.8139C6.466 32.0196 8.1213 31.3789 9.73821 30.6547C10.4858 30.3193 11.225 29.9672 11.9475 29.5834C12.2762 29.4099 12.5699 29.1596 12.8536 28.9143C13.2941 28.5338 13.516 28.0633 13.4843 27.4509C13.4426 26.6549 13.491 25.8523 13.461 25.0547C13.4509 24.8077 13.3675 24.5207 13.2173 24.3305C12.393 23.2826 11.8757 22.0895 11.507 20.8297C11.3968 20.4526 11.2383 20.1606 10.9597 19.8802C10.6376 19.5565 10.3373 19.1727 10.1537 18.7572C9.55466 17.4106 9.33774 16.044 10.1687 14.6857C10.2505 14.5506 10.2789 14.3353 10.2388 14.1818C9.87171 12.7351 9.68148 11.2583 9.66479 9.77659C9.6381 7.35038 9.98017 4.99926 11.562 3.00856C12.6283 1.6653 14.065 0.916083 15.6702 0.455538C17.1336 0.0317019 18.6438 -0.0800973 20.1489 0.0533943C21.5339 0.175205 22.8488 0.562331 23.8616 1.62025C23.9651 1.72704 24.1052 1.83384 24.2454 1.86387C26.1026 2.26435 27.1589 3.55421 27.8747 5.17947C28.4154 6.40592 28.6473 7.71915 28.6957 9.05573C28.7574 10.7661 28.6807 12.4664 28.2168 14.1317C28.1584 14.3387 28.2201 14.619 28.3152 14.8242C29.0661 16.4495 28.7441 17.9713 27.8997 19.4447C27.813 19.5949 27.6878 19.7484 27.541 19.8318C27.0504 20.1088 26.9102 20.5844 26.74 21.0683C26.2561 22.4349 25.6621 23.7348 24.5508 24.7343C24.0769 25.1615 23.6647 25.6571 23.2242 26.1226C23.1842 26.0993 23.1458 26.0776 23.1057 26.0542V23.6931C24.0869 23.034 24.4907 21.966 24.8962 20.9148C25.1014 20.3825 25.1865 19.8035 25.3234 19.2461C25.3651 19.0776 25.4001 18.9091 25.4285 18.7789C25.5152 18.7239 25.5536 18.6788 25.5903 18.6805C26.3746 18.6922 26.6633 18.1916 26.7951 17.5258C26.8034 17.4824 26.8185 17.439 26.8235 17.3956C26.997 16.0023 27.1071 15.9222 26.0075 15.1963C26.1927 14.5322 26.4213 13.8648 26.5615 13.179C27.0187 10.9163 27.1071 8.65192 26.3913 6.4176C26.2511 5.97875 26.0509 5.55158 25.8239 5.14943C25.3167 4.24503 24.5307 3.70439 23.5029 3.5492C23.1274 3.49247 22.8521 3.35397 22.6418 3.01691C22.3198 2.50296 21.7792 2.27269 21.2268 2.0858C20.1489 1.72204 19.0326 1.73372 17.9346 1.8622C17.0853 1.96232 16.2326 2.16924 15.4233 2.44957C13.2107 3.21381 12.0793 4.89413 11.6622 7.1201C11.2333 9.40948 11.522 11.6638 12.0226 13.9048C12.1144 14.3136 12.2128 14.7191 12.3029 15.1112C12.2746 15.168 12.2645 15.2247 12.2328 15.2447C11.4319 15.717 11.2784 16.4111 11.527 17.2504C11.5771 17.4206 11.6121 17.5942 11.6688 17.7627C11.8407 18.28 12.1027 18.6938 12.7434 18.6571C12.8018 18.6538 12.8653 18.7005 12.9837 18.7455C13.0171 18.9575 13.0738 19.1911 13.0905 19.428C13.1856 20.7279 13.7263 21.8609 14.4221 22.9288C14.609 23.2175 14.8993 23.4378 15.2397 23.7899V26.7884C15.4784 26.9353 15.6769 27.0704 15.8855 27.1872C16.8149 27.7045 17.7544 28.2034 18.6755 28.7374C19.0259 28.941 19.3146 28.936 19.6633 28.7407C20.551 28.2418 21.4554 27.7712 22.3515 27.2907L22.3498 27.289H22.3515ZM16.326 39.2682C16.7115 37.1056 17.6209 35.175 18.7205 33.2895C18.4319 33.0608 18.1999 32.8773 17.9513 32.6821C17.7978 32.8506 17.6893 32.9574 17.5925 33.0759C17.0869 33.6933 16.5997 34.3274 16.0774 34.9281C15.5618 35.5221 15.0996 35.5221 14.5673 34.9431C14.2235 34.5693 13.9148 34.1605 13.5894 33.7684C13.0271 33.0892 12.4631 32.4101 11.8924 31.7243C11.6939 31.7927 11.5487 31.8361 11.4085 31.8928C10.384 32.31 9.34608 32.6988 8.33989 33.1593C7.23525 33.6649 6.12226 34.1755 5.08103 34.7962C3.69272 35.6256 2.68152 36.8153 2.18259 38.3872C2.09749 38.6525 2.06412 38.9328 1.99571 39.2665H16.3244L16.326 39.2682ZM15.3132 33.0208C16.0907 32.053 16.8016 31.1703 17.5725 30.2108C16.7131 29.7302 15.9339 29.293 15.1913 28.8776C14.6207 29.55 14.0967 30.1658 13.516 30.8499C14.0784 31.529 14.6607 32.2332 15.3132 33.0208Z" fill="#326789"/>
<path d="M22.3548 27.2907L22.3782 27.269L22.3515 27.289L22.3548 27.2907Z" fill="#326789"/>
<path d="M36.3281 34.5409C36.3848 36.4432 34.6577 38.2603 32.5069 38.2153C30.2709 38.1686 28.7674 36.263 28.7925 34.3991C28.8208 32.3483 30.6179 30.6046 32.6871 30.6713C34.6411 30.7348 36.4215 32.3383 36.3281 34.5409ZM34.5209 34.5126C34.6244 33.5965 33.8818 32.5286 32.6136 32.4701C31.5724 32.4218 30.5979 33.3929 30.5896 34.4442C30.5812 35.5004 31.4556 36.3831 32.5252 36.3965C33.7433 36.4115 34.5092 35.689 34.5209 34.5126Z" fill="#326789"/>
</g>
<defs>
<clipPath id="clip0_398_28">
<rect width="43.1278" height="45" fill="white"/>
</clipPath>
</defs>
</svg>
