<svg width="100" height="80" viewBox="0 0 100 80" xmlns="http://www.w3.org/2000/svg">
    <defs>
        <linearGradient x1="-.01%" y1="50.015%" x2="100.005%" y2="50.015%" id="a">
            <stop stop-color="gray" stop-opacity=".25" offset="0%"/>
            <stop stop-color="gray" stop-opacity=".12" offset="54%"/>
            <stop stop-color="gray" stop-opacity=".1" offset="100%"/>
        </linearGradient>
        <linearGradient x1="100.029%" y1="49.975%" x2="-.001%" y2="49.975%" id="b">
            <stop stop-color="gray" stop-opacity=".25" offset="0%"/>
            <stop stop-color="gray" stop-opacity=".12" offset="54%"/>
            <stop stop-color="gray" stop-opacity=".1" offset="100%"/>
        </linearGradient>
    </defs>
    <g transform="translate(.5)" fill="none" fill-rule="evenodd">
        <ellipse fill="#C61C2C" fill-rule="nonzero" opacity=".1" cx="51.017" cy="40" rx="44.819" ry="40"/>
        <ellipse fill="#C61C2C" fill-rule="nonzero" opacity=".1" cx="16.526" cy="60.461" rx="16.526" ry="2.561"/>
        <ellipse fill="#C61C2C" fill-rule="nonzero" opacity=".1" cx="24.469" cy="73.898" rx="6.428" ry="1.328"/>
        <ellipse fill="#C61C2C" fill-rule="nonzero" opacity=".1" cx="68.39" cy="68.789" rx="6.428" ry="1.328"/>
        <ellipse fill="#C61C2C" fill-rule="nonzero" opacity=".1" cx="46.579" cy="67.232" rx="10.453" ry="1.771"/>
        <ellipse fill="#C61C2C" fill-rule="nonzero" opacity=".1" cx="77.377" cy="58.467" rx="21.801" ry="3.415"/>
        <path d="M4.519 52.507a6.066 6.066 0 0 0 .316 6.09c.192.288.369.496.51.55.677.267 2.034.921 2.034.921l3.267-1.283s.53-2.806 1.032-5.215c.342-1.643.672-3.1.808-3.356.338-.63 0-7.48 0-7.48s-3.267-.22-4.165 2.299l-.393.768-3.41 6.706z" fill="#A8A8A8" fill-rule="nonzero"/>
        <path d="M8.856 53.264c1.986 2.276 2.823.307 2.823.307.343-1.643.673-3.1.809-3.356.338-.63 0-7.48 0-7.48s-3.267-.22-4.166 2.299l-.393.768c-.251 2.015-.5 5.824.927 7.462z" fill="#FFF" fill-rule="nonzero" opacity=".1"/>
        <path d="m9.292 59.608 11.53-1.332 2.057-13.535-1.556-3.516a14.245 14.245 0 0 0-2.69-4.058c-.783-.826-1.73-1.62-2.725-2.018a4.09 4.09 0 0 0-.416-.142c-.33-.1-.686-.037-.96.17-1.423 1.008-1.931 5.293-2.095 7.356a23.02 23.02 0 0 1-.343 2.526L9.292 59.608z" fill="#A8A8A8" fill-rule="nonzero"/>
        <path d="m16.968 44.595-2.402 5.908c1.258-.92 3.123-5.932 3.123-5.932l1.671 5.714-1.332-6.023c.195-1.308.252-2.633.17-3.953-.106-1.512-1.525-3.939-2.296-5.161a4.09 4.09 0 0 0-.416-.142c-.329-.1-.686-.037-.96.17.605 1.215 2.118 4.254 2.58 5.157.584 1.138-.138 4.262-.138 4.262z" fill="#FFF" fill-rule="nonzero" opacity=".1"/>
        <path d="M18.929 60.068h6.255a1.898 1.898 0 0 0 1.896-1.993c-.138-2.683-.489-7.466-1.323-10.502-.45-1.638-.974-2.498-1.455-2.922a1.42 1.42 0 0 0-.827-.389 1.086 1.086 0 0 0-.672.163C21.64 45.54 20.284 51.4 20.284 51.4l-1.355 8.67z" fill="#A8A8A8" fill-rule="nonzero"/>
        <path d="M24.704 54.871c.258.714.36 1.538 0 2.34l-1.394.689s-3.747-1.589-3.292-4.844c0 0 .123-.672 1.414-.62a3.658 3.658 0 0 1 3.272 2.435zM23.215 46.314c-.043-1.141.576-1.537 1.088-1.663a1.42 1.42 0 0 0-.827-.389c-.356.298-.609.702-.721 1.153l-1.307 6.37s1.84-3.558 1.767-5.47z" fill="#FFF" fill-rule="nonzero" opacity=".1"/>
        <path d="m17.283 51.35 3.097 4.238.538 3.497-1.991.983-2.87.634c-.277.062-.56.08-.843.055l-7.831-.689 1.065-2.47 3.68-5.166 5.155-1.081z" fill="#A8A8A8" fill-rule="nonzero"/>
        <path d="M16.084 49.896s2.114.145 1.32 3.777c-.794 3.632-8.96 3.923-8.96 3.923s1.736-3.074 4.405-5.278c.3-.247.589-.504.864-.779.614-.614 1.789-1.693 2.37-1.643z" fill="#FFF" fill-rule="nonzero" opacity=".1"/>
        <path d="M17.985 52.635s2.864 2.606 2.594 6.617" fill="#000" fill-rule="nonzero" opacity=".1"/>
        <path d="M22.804 44.425s-3.006 3.997-3.343 10.147M12.488 42.732s1.455 6.605-2.177 11.584" fill="#000" fill-rule="nonzero" opacity=".1"/>
        <path d="M38.983 67.195h15.674a.878.878 0 0 0 .769-1.294l-7.834-14.554a.877.877 0 0 0-1.545 0L38.21 65.901a.878.878 0 0 0 .773 1.294zm8.834-2.66h-1.995v-1.993h1.995v1.994zm0-3.322h-1.995v-3.989h1.995v3.989z" fill="#464353" fill-rule="nonzero"/>
        <path d="M38.983 67.195h15.674a.878.878 0 0 0 .769-1.294l-7.834-14.554a.877.877 0 0 0-1.545 0L38.21 65.901a.878.878 0 0 0 .773 1.294zm8.834-2.66h-1.995v-1.993h1.995v1.994zm0-3.322h-1.995v-3.989h1.995v3.989z" fill="#000" fill-rule="nonzero" opacity=".1"/>
        <path d="M38.983 67.676h15.674a.878.878 0 0 0 .769-1.294l-7.834-14.555a.877.877 0 0 0-1.545 0L38.21 66.382a.878.878 0 0 0 .773 1.294zm8.834-2.66h-1.995v-1.993h1.995v1.993zm0-3.323h-1.995v-3.988h1.995v3.988z" fill="#464353" fill-rule="nonzero"/>
        <path d="M30.373 59.838a1.076 1.076 0 0 0-.222-.108c-.258-.096-.532-.121-.79-.213a1.13 1.13 0 0 1-.397-.235 1.041 1.041 0 0 1-.055-.058c.097-.06.184-.121.28-.178a3.301 3.301 0 0 0-1.16-1.153c.155-.228.504-.21.708-.393a.673.673 0 0 0 .192-.378c.076-.377-.019-.768-.113-1.14-.182-.727-.367-1.46-.663-2.147a8.462 8.462 0 0 1-.359-.87c-.249-.83-.075-1.73-.263-2.577-.06-.272-.159-.552-.09-.821.104-.417.57-.664.672-1.081.369-1.485.435-3.025.645-4.54.047-.288.073-.58.078-.871 0-.307-.055-.61-.077-.916-.06-.858.112-1.715.186-2.572.165.264.283.555.349.86.042.282.048.569.02.853-.007.19-.027.38-.06.568-.048.223-.13.436-.185.659-.118.438-.086.904.091 1.322.13.288.418.555.717.469.207-.06.331-.265.424-.46.288-.611.448-1.32.254-1.97-.127-.431-.408-.822-.434-1.274 0-.18.014-.36.042-.54.12-1.042-.139-2.09-.197-3.14-.015-.278.01-.623-.052-.917a1.192 1.192 0 0 0-.027-.105.225.225 0 0 1 .069.032.626.626 0 0 0-.014-.538 1.365 1.365 0 0 1-.09-.169c-.036-.096-.03-.207-.075-.3a1.279 1.279 0 0 0-.096-.139c-.124-.18-.13-.412-.134-.63a111.896 111.896 0 0 0-.096-3.409c-.026-.576-.058-1.166-.26-1.707a2.56 2.56 0 0 0-.903-1.198 2.104 2.104 0 0 0-.203-.127.703.703 0 0 0 .058-.26.62.62 0 0 0 0-.084l-.006-.048c-.035-.201-.1-.395-.192-.577a1.62 1.62 0 0 1-.184-.63c0-.04.002-.08.007-.12.033-.276.177-.535.228-.812.015-.086.022-.173.02-.26v-.092a2.62 2.62 0 0 0-.308-.97c-.048-.096-.096-.192-.15-.288-.024-.18-.052-.36-.08-.538a4.87 4.87 0 0 0-.054-.31 2.135 2.135 0 0 0-.037-.15c.149-.14.062-.346-.033-.537-.184-.361-.145-.792-.223-1.19a3.597 3.597 0 0 0-.282-.8 1.781 1.781 0 0 0-.307-.503 1.88 1.88 0 0 0-.397-.288 1.263 1.263 0 0 0-.394-.178c-.087-.017-.176-.016-.263-.036a.834.834 0 0 1-.161-.06 1.11 1.11 0 0 0-.345-.125.775.775 0 0 0-.333.063c-.113.05-.234.083-.357.097h-.136a.3.3 0 0 0-.183.044.694.694 0 0 0-.079.08c-.07.063-.148.117-.231.159a2.282 2.282 0 0 0-1.12 1.95.967.967 0 0 1-.029.317c-.027.08-.082.15-.105.233a.655.655 0 0 0-.01.22c.007.111.018.223.03.335a.707.707 0 0 0-.14.31.424.424 0 0 0-.008.06v.008c-.01.2.088.384.146.576.097.373.087.764-.029 1.131-.07.253-.17.514-.192.769v.017a.93.93 0 0 0 .044.385c.032.087.079.169.108.257.102.313-.046.642-.242.917-.031.043-.063.084-.096.125h.004l-.004.004.2.142c-.06.03-.118.064-.177.096-.231.037-.452.12-.652.24-.19.096-.367.214-.528.352-.169.17-.31.364-.417.577-.132.242-.25.49-.354.746a2.335 2.335 0 0 0-.18.646c-.083.176-.151.365-.227.535l-.114.263-3.307-8.098-.513.213.04.096-.106.046.145.353-.062.044-.027.021-.054.043-.027.022-.055.046-.02.017-.068.063a4.77 4.77 0 0 0-.211.206l-.176.182-.034.035-.059.06-.032.034-.084.083-.006.006-.051.05-.033.03-.042.04-.04.037-.066.055-.02.018-.089.07c-.12.094-.249.177-.384.248-.526.271-1.082.5-1.595.79a4.593 4.593 0 0 0-.79.554c-.339.3-.626.672-1.02.89l-.042.023c-.696.358-1.515.144-2.306.128-.118 0-.235 0-.35.008-.642.05-1.229.31-1.797.627-.4.224-.79.476-1.181.704-.248.143-.497.298-.747.458-.634.403-1.276.825-1.94 1.13-.617.282-1.249.462-1.921.427H.49c-.063 0-.128-.008-.191-.016-.063.504.34.91.61 1.355.128.191.207.412.228.642.003.086-.004.172-.02.257-.053.311-.198.617-.158.93.024.183.094.357.204.506.172.244.409.46.57.715.244.385.308.853.403 1.305.051.318.158.624.316.904.207.335.525.577.822.833a5.871 5.871 0 0 1 .272.253c.349.356.608.906.398 1.352l-.022.043a.384.384 0 0 0 .053.032c.268.13.604-.08.824-.301a5.82 5.82 0 0 0 .311-.341c.269-.298.514-.62.77-.93.068-.084.137-.165.209-.246.27-.31.59-.57.949-.769.186-.096.381-.175.582-.236.298-.096.605-.167.904-.261.41-.132.809-.3 1.19-.5a18.308 18.308 0 0 0 1.922-1.191l.096-.063c.207-.13.399-.283.572-.456.03-.034.06-.069.088-.104.15-.192.247-.42.385-.62.145-.206.328-.382.539-.52.592-.398 1.38-.55 2.084-.768h.007a8.1 8.1 0 0 0 3.283-1.95l.527 1.29c-.055.152-.106.306-.155.462-.117.384-.213.78-.443 1.105a.824.824 0 0 0-.167.297.96.96 0 0 1-.04.238c-.032.065-.1.109-.128.176-.04.096.012.22-.041.31a.488.488 0 0 1-.092.096c-.137.122-.174.314-.174.49.014.177 0 .356-.043.53.04-.024.082-.046.124-.065a.576.576 0 0 0-.01.096c0 .091.01.182.033.27.066.2.16.39.28.561.091.151.192.295.302.433.19.212.404.403.636.569l.968.747-.096.405c-.211.847-.425 1.705-.435 2.58.003.413.029.827.078 1.238l.083.843c.067.68.135 1.359.209 2.038.047.43.096.865.248 1.27.228.616-.024 1.312.073 1.963.076.51.228 1.038.075 1.53-.061.193-.169.377-.247.568-.197.472-.218.998-.234 1.51-.03.449-.014.9.05 1.345.082.46.264.91.229 1.376-.05.662-.534 1.228-.593 1.89-.047.527.182 1.038.43 1.506.181.344-.073.79-.169 1.17-.192.744.127 1.523.516 2.183.01.022.027.04.05.052.043.016.085-.028.114-.066.028-.037.037-.046.057-.068 0 .03.006.06.008.088 0 .063.005.125.005.193a1.931 1.931 0 0 0 .184.84.594.594 0 0 0 .096.154c.104.099.241.156.385.161.319.035.64-.031.96-.06.339-.028.678-.015 1.017-.023a.147.147 0 0 0 .076-.016.13.13 0 0 0 .043-.07.769.769 0 0 0 .016-.378 2.684 2.684 0 0 0-.072-.3 12.55 12.55 0 0 1-.126-.481l-.02-.09.015.007.621-1.395c.105-.235.212-.49.16-.743-.038-.18-.153-.333-.235-.498-.192-.39-.2-.846-.202-1.282l-.012-2.471c.48-.611.777-1.339.96-2.098a6.784 6.784 0 0 1 .058 3.267c-.045.163-.075.33-.092.498-.037.685.496 1.265.638 1.936a.436.436 0 0 1 .01.157.59.59 0 0 1-.078.183c-.256.468-.228 1.033-.192 1.565l.112.018c.028.05.07.09.12.117a.588.588 0 0 0 .148.062c.185.043.372.071.56.085.271.027.543.054.815.072.108.006.216.012.323.015.151 0 .302.01.452.032.163.034.324.08.48.139.7.234 1.485.368 2.163.076a.974.974 0 0 0 .395-.28.465.465 0 0 0-.117-.722l-.007.003zm-9.293-27.39c.102.203.204.405.288.615.166.407.267.865.162 1.29-.031.124-.232.22-.231.35a.288.288 0 0 0-.015.029l-.628-1.537c.122-.26.263-.51.424-.747zm-.689 3.267a2.659 2.659 0 0 1-.34-.587l-.036-.077a.23.23 0 0 0 .092-.068c.096-.121.044-.298.058-.454a.98.98 0 0 1 .153-.384l.589 1.441c-.06.156-.115.314-.167.474a3.363 3.363 0 0 1-.349-.345z" fill="url(#a)" fill-rule="nonzero"/>
        <path d="M22.464 22.744c-.01.2.09.384.148.577a2.04 2.04 0 0 1-.027 1.128c-.108.384-.289.79-.151 1.166.031.088.08.169.108.257.12.366-.102.75-.344 1.049l.95.665c.14.115.304.194.48.23.179.021.385-.074.422-.249.012-.06 0-.122.011-.182a.496.496 0 0 1 .266-.37.87.87 0 0 1 .46-.085c.584.032 1.08.415 1.61.661.35.152.712.272 1.083.36.21.054.444.104.634 0 .19-.105.278-.348.263-.568a1.857 1.857 0 0 0-.202-.626 1.591 1.591 0 0 1-.185-.629c0-.323.177-.617.236-.934.084-.45-.086-.909-.294-1.318-.207-.41-.459-.803-.56-1.25a1.826 1.826 0 0 0-.105-.394.9.9 0 0 0-.192-.258c-.356-.352-.864-.52-1.362-.556-.498-.036-1 .045-1.494.13a3.124 3.124 0 0 0-.555.132 3.521 3.521 0 0 0-.729.395c-.225.156-.456.384-.47.669z" fill="#464353" fill-rule="nonzero"/>
        <g opacity=".1" fill="#000" fill-rule="nonzero">
            <path d="M27.987 25.931c0 .029 0 .058.006.086.03-.282.178-.546.23-.828.02-.113.027-.227.019-.342 0 .05-.01.096-.019.15-.06.317-.24.611-.236.934zM22.677 23.705a1.72 1.72 0 0 0-.065-.577 3.342 3.342 0 0 1-.139-.447c0 .02-.008.039-.009.06-.01.2.09.384.148.576.038.126.06.256.065.388zM28.369 27.33a.55.55 0 0 1-.258.424c-.192.104-.424.054-.634 0a6.391 6.391 0 0 1-1.083-.36c-.53-.246-1.026-.629-1.61-.66a.87.87 0 0 0-.46.085.496.496 0 0 0-.266.369c-.006.06 0 .123-.011.182-.038.175-.243.27-.42.25a1.092 1.092 0 0 1-.481-.23l-.854-.6a2.666 2.666 0 0 1-.097.125l.95.667c.14.115.304.194.481.23.178.02.384-.075.42-.25.013-.06 0-.122.012-.182a.496.496 0 0 1 .267-.369.87.87 0 0 1 .46-.086c.583.032 1.079.416 1.61.66.349.153.711.273 1.082.36.21.056.444.106.634 0 .19-.104.278-.347.263-.567 0-.016-.004-.032-.005-.048zM22.542 25.868c.012.038.02.078.026.118a.697.697 0 0 0-.026-.31c-.029-.089-.077-.17-.108-.258a.803.803 0 0 1-.044-.199.903.903 0 0 0 .044.391c.031.089.08.17.108.258z"/>
        </g>
        <path d="M23.67 62.325a.126.126 0 0 1-.044.07.147.147 0 0 1-.076.016c-.342.007-.684 0-1.025.024-.323.028-.647.096-.969.06a.497.497 0 0 1-.48-.317 1.913 1.913 0 0 1-.185-.84v-.192a1.458 1.458 0 0 0-.028-.21.318.318 0 0 1 .01-.242c.136-.25.465-.3.719-.318.588-.045 1.179-.001 1.754.128a17.195 17.195 0 0 0 .276 1.14c.03.099.055.2.073.3a.769.769 0 0 1-.025.381z" fill="#464353" fill-rule="nonzero"/>
        <path d="M23.67 62.325a.126.126 0 0 1-.044.07.147.147 0 0 1-.076.016c-.342.007-.684 0-1.025.024-.323.028-.647.096-.969.06a.497.497 0 0 1-.48-.317 1.256 1.256 0 0 1-.054-.129h.123c.405 0 .81-.014 1.215-.014.122 0 .245-.006.366-.02.12-.015.22-.035.33-.048.166-.016.332-.023.498-.02h.136a.769.769 0 0 1-.02.378z" fill="#000" fill-rule="nonzero" opacity=".06"/>
        <path d="M30.747 60.54a.983.983 0 0 1-.398.28c-.684.289-1.475.16-2.181-.075a3.322 3.322 0 0 0-.485-.14 3.267 3.267 0 0 0-.455-.031c-.108 0-.217-.009-.326-.016a23.275 23.275 0 0 1-.821-.07 3.712 3.712 0 0 1-.565-.086.6.6 0 0 1-.15-.062.232.232 0 0 1-.14-.206c.008-.122.135-.193.247-.245.988-.428 2.063-.613 3.129-.762.109-.018.214-.05.314-.096.12-.048.133.03.192.119a.74.74 0 0 0 .096.113c.116.105.252.184.4.235.26.096.537.122.797.213.078.027.153.063.224.107a.463.463 0 0 1 .117.723h.005z" fill="#464353" fill-rule="nonzero"/>
        <path d="M30.747 60.54a.983.983 0 0 1-.398.28c-.684.289-1.475.16-2.181-.075a3.322 3.322 0 0 0-.485-.14 3.267 3.267 0 0 0-.455-.031c-.108 0-.217-.009-.326-.016.089-.083.18-.165.271-.244a.807.807 0 0 1 .228-.15.66.66 0 0 1 .324-.022c.55.076 1.043.461 1.598.428.258-.03.508-.11.735-.238.184-.075.349-.192.48-.342.04-.051.07-.11.09-.172a.463.463 0 0 1 .117.723h.002z" fill="#000" fill-rule="nonzero" opacity=".06"/>
        <path d="M30.553 43.843c-.096.192-.219.4-.426.46-.302.087-.592-.184-.724-.468a2.025 2.025 0 0 1-.096-1.323c.055-.221.139-.435.186-.658.034-.187.054-.377.061-.567.029-.285.022-.571-.02-.854-.155-.825-.865-1.44-1.101-2.252-.12-.404-.113-.835-.107-1.257a1.292 1.292 0 0 1 .033-.317.495.495 0 0 1 .029-.082c.158-.352.628-.4.955-.605.18-.112.59-.474.743-.144.032.074.057.15.073.23.062.294.037.639.052.917.059 1.049.32 2.096.2 3.14a3.275 3.275 0 0 0-.043.537c.026.452.308.843.438 1.275.2.65.04 1.36-.253 1.968z" fill="#FBBEBE" fill-rule="nonzero"/>
        <path d="M30.163 36.008a.324.324 0 0 0-.22 0l-.651.192c-.228.06-.45.142-.664.241-.093.046-.182.101-.264.164a.495.495 0 0 1 .029-.082c.158-.352.628-.4.955-.604.18-.113.59-.475.742-.145.033.075.058.154.073.234z" fill="#000" fill-rule="nonzero" opacity=".1"/>
        <path d="M30.206 35.935a.294.294 0 0 0-.264-.021l-.65.192c-.228.06-.45.141-.664.241-.113.055-.22.124-.316.206-.304-.528-.384-1.153-.44-1.759-.03-.352-.054-.706-.067-1.056a4.74 4.74 0 0 1 .015-.758c.036-.288.12-.57.172-.856a4.96 4.96 0 0 0 .009-1.62 6.902 6.902 0 0 0-.268-1.154c-.061-.171-.135-.338-.202-.507l-.023-.06a7.004 7.004 0 0 1-.297-.952c-.03-.132-.033-.271-.135-.362.096-.011.192-.015.289-.011h.057c.395.025.775.158 1.1.384.417.301.734.721.91 1.205.203.54.237 1.129.262 1.706.052 1.135.084 2.271.097 3.407 0 .218.01.45.134.63.035.045.067.091.096.14.045.096.039.203.075.3.027.058.057.114.091.169a.62.62 0 0 1 .019.536z" fill="#464353" fill-rule="nonzero"/>
        <path d="M23.81 24.66c-.096-.032-.192-.067-.288-.1l.2.017a.41.41 0 0 1 .089.084z" fill="#FBBEBE" fill-rule="nonzero"/>
        <path d="M27.745 28.125c-.02.065-.038.13-.06.192a3.672 3.672 0 0 1-.177.462 2.15 2.15 0 0 1-.455.659.603.603 0 0 1-.227.15.72.72 0 0 1-.222.021c-.257 0-.513-.004-.77-.012a2.73 2.73 0 0 1-.593-.058 2.12 2.12 0 0 1-.605-.273c-.718-.444-1.308-1.12-1.56-1.922-.032-.101-.054-.224.016-.303a.372.372 0 0 1 .245-.084h.011c.207-.027.406-.095.586-.2a.601.601 0 0 0 .267-.274.736.736 0 0 0-.009-.424l-.213-.969a1.003 1.003 0 0 0-.17-.431c.062.022.125.042.192.06.594.16 1.243.063 1.825.273.223.082.446.229.513.458.113.384-.263.783-.155 1.167.072.261.338.412.576.534l.16.082.445.226.062.03.01.005c.14.071.288.16.337.31.02.108.01.219-.029.32z" fill="#FBBEBE" fill-rule="nonzero"/>
        <path d="M28.917 30.38a2.074 2.074 0 0 1-.177.711 2.904 2.904 0 0 0-.302 1.25c-.074 1.297-.567 2.84.14 3.93l.05.082c-.113.055-.22.124-.316.205-.304-.527-.384-1.153-.44-1.758-.03-.352-.054-.706-.067-1.057a4.74 4.74 0 0 1 .015-.757c.036-.288.12-.57.172-.856A4.96 4.96 0 0 0 28 30.51a6.902 6.902 0 0 0-.268-1.154c-.061-.172-.135-.338-.202-.507l-.023-.06a2.15 2.15 0 0 1-.455.66.603.603 0 0 1-.227.15.72.72 0 0 1-.222.02c-.257 0-.513-.003-.77-.011a2.73 2.73 0 0 1-.593-.059 2.12 2.12 0 0 1-.605-.272c-.718-.444-1.308-1.12-1.56-1.922-.032-.102-.054-.224.016-.304a.372.372 0 0 1 .245-.083h.011l.865 1.07c.1.112.183.238.25.373.013.045.04.085.077.114.03.014.063.02.096.017h2.705a.702.702 0 0 0-.119-.404c-.025.006-.058.008-.006-.008a2.723 2.723 0 0 0-.328-.946 1.024 1.024 0 0 1-.142-.311.519.519 0 0 1 .315 0c.118.05.18.178.231.296.045.097.089.2.128.3 0 .01.01.022.014.033.083.199.137.409.16.623.005.08.024.18.09.205.01.005.02.007.032.008a.363.363 0 0 1 .393.096c.095.108.16.238.192.378s.077.277.137.408c.124.236-.066.342.158.487a.78.78 0 0 1 .264.236.738.738 0 0 1 .057.437zM23.337 60.508c.045.221.096.44.15.66l-.006.013c-.44-.192-.889-.393-1.368-.435-.445-.039-.928.081-1.231.404a1.458 1.458 0 0 0-.028-.21.318.318 0 0 1 .01-.242c.136-.25.466-.3.72-.318.587-.045 1.178-.001 1.753.128z" fill="#000" fill-rule="nonzero" opacity=".1"/>
        <path d="M27.123 28.315c.047 0 .03 0 .007.008s-.06.008-.007-.008zM29.21 59.263a8.346 8.346 0 0 0-1.204.931 1.26 1.26 0 0 1-.38.278 1.109 1.109 0 0 1-.457.047 15.565 15.565 0 0 1-1.804-.179.232.232 0 0 1-.138-.206c.007-.122.134-.193.246-.245.988-.428 2.063-.613 3.129-.762.109-.018.214-.05.314-.096.12-.048.133.03.192.119a.74.74 0 0 0 .101.113z" fill="#000" fill-rule="nonzero" opacity=".1"/>
        <path d="M22.16 27.2c.141.125.303.227.446.349.384.326.626.781.864 1.225a.801.801 0 0 1-.44.03c-.076.426-.063.863.037 1.284a1.191 1.191 0 0 0-.43.534c-.068.219-.115.444-.14.672l-.417 3a.465.465 0 0 1-.096.27.518.518 0 0 0-.073.072.399.399 0 0 0-.034.206c-.005.07-.051.154-.122.145a.152.152 0 0 1-.085-.056 1.962 1.962 0 0 1-.192-.238c-.567 1.087-.84 2.26-1.14 3.449-.214.847-.428 1.704-.439 2.579.003.413.029.826.078 1.237l.084.844c.069.678.137 1.357.21 2.036.049.43.097.864.252 1.27.23.616-.025 1.31.073 1.962.077.51.23 1.037.076 1.53-.062.196-.17.376-.25.566-.198.473-.218.998-.236 1.51-.03.45-.014.9.05 1.346.083.46.268.91.232 1.376-.051.662-.54 1.227-.599 1.889-.047.527.185 1.036.434 1.504.183.345-.072.79-.17 1.17-.192.744.128 1.522.52 2.182.01.023.028.041.05.052.045.017.086-.028.116-.065.295-.379.817-.522 1.297-.48.48.04.928.239 1.368.435l.623-1.389c.106-.235.214-.49.16-.742-.037-.18-.153-.334-.235-.499-.193-.39-.202-.845-.204-1.282l-.012-2.469c.486-.611.783-1.337.97-2.096a6.726 6.726 0 0 1 .058 3.266c-.046.163-.078.33-.096.498-.037.685.5 1.264.643 1.935a.416.416 0 0 1 .012.158.594.594 0 0 1-.08.182c-.258.467-.23 1.033-.192 1.565.673.118 1.354.19 2.038.218.154.016.31 0 .457-.047.143-.068.271-.162.38-.278a8.38 8.38 0 0 1 1.428-1.081 3.326 3.326 0 0 0-1.167-1.153c.154-.228.507-.21.713-.392a.673.673 0 0 0 .192-.379c.077-.376-.018-.768-.114-1.138-.184-.729-.37-1.46-.672-2.148a8.251 8.251 0 0 1-.361-.87c-.252-.827-.076-1.729-.267-2.575-.061-.271-.16-.55-.09-.82.105-.417.576-.664.68-1.08.371-1.485.438-3.023.649-4.538a5.83 5.83 0 0 0 .076-.876c0-.306-.055-.61-.077-.915-.087-1.223.305-2.444.205-3.666a4.612 4.612 0 0 0-.723-2.114c-.706-1.09-.213-2.633-.14-3.93a2.89 2.89 0 0 1 .302-1.25 2.05 2.05 0 0 0 .178-.71.735.735 0 0 0-.054-.449.758.758 0 0 0-.262-.236c-.224-.146-.034-.252-.158-.488a2.05 2.05 0 0 1-.137-.408.857.857 0 0 0-.192-.377.363.363 0 0 0-.393-.096c-.091 0-.116-.121-.124-.213-.026-.334-.164-.648-.3-.956-.052-.118-.113-.246-.231-.297a.53.53 0 0 0-.316 0c.03.112.078.217.143.313.166.292.277.612.326.945-.096.029.097 0 0 0 .087.12.13.265.126.412h-2.704a.192.192 0 0 1-.096-.017.23.23 0 0 1-.078-.114 1.665 1.665 0 0 0-.25-.373l-.951-1.173a.24.24 0 0 0-.082-.074.221.221 0 0 0-.12 0c-.308.045-.536.174-.805.33z" fill="#C61C2C" fill-rule="nonzero"/>
        <path d="M25.574 43.095a.918.918 0 0 1 .468.12.472.472 0 0 1 .232.406c-.01.182-.15.326-.25.48a1.287 1.287 0 0 0-.149.304.122.122 0 0 0-.007.078c.011.037.05.055.084.071.25.113.414.357.424.63-.009.375-.375.679-.355 1.057.01.08.023.157.04.235.045.322 0 .651-.129.95-.116.302-.275.585-.4.884-.337.812-.41 1.711-.384 2.594.02.6-.192 1.17-.384 1.741.108-1.15.137-2.305.086-3.459-.013-.313-.053-.609-.038-.923.023-.499.301-.952.372-1.441.04-.28.014-.564.02-.847.014-.576.17-1.145.181-1.723.014-.409-.024-.83.189-1.157z" fill="#000" fill-rule="nonzero" opacity=".1"/>
        <path d="M21.564 27.405c-.19.095-.37.213-.532.352-.17.168-.312.363-.42.576-.134.242-.253.49-.357.746-.136.33-.248.696-.155 1.041.084.312.324.555.489.833.165.278.262.603.39.908.168.406.4.785.567 1.192.167.408.268.865.162 1.289-.03.125-.233.222-.233.35 0 .211.305.44.508.502.234.072.488-.035.68-.192.35-.278.563-.694.72-1.113.255-.672.39-1.386.512-2.095.088-.52.171-1.043.218-1.567.043-.473.057-.961-.068-1.415a2.402 2.402 0 0 0-.656-1.091c-.25-.24-.66-.563-1.023-.572-.287 0-.556.12-.802.256z" fill="#464353" fill-rule="nonzero"/>
        <path d="M24.296 38.987a.46.46 0 0 1-.215.32c-.113.07-.236.12-.366.15-.257.075-.53.144-.79.078a1.587 1.587 0 0 1-.556-.316l-2.909-2.227a3.929 3.929 0 0 1-.64-.57 4.096 4.096 0 0 1-.304-.43 2.114 2.114 0 0 1-.283-.562 1.028 1.028 0 0 1-.035-.27c0-.086.02-.17.062-.246.07-.118.22-.142.343-.174a3.6 3.6 0 0 1 1.265-.096.172.172 0 0 1 .171.116c.065.118.12.241.178.364.089.21.204.407.343.587.134.146.277.283.428.412.307.288.559.634.887.9.379.306.84.49 1.273.715.432.226.859.52 1.076.956.05.09.075.19.072.293z" fill="#FBBEBE" fill-rule="nonzero"/>
        <path d="M27.663 23.45a2.379 2.379 0 1 1-4.758 0 2.379 2.379 0 0 1 4.758 0z" fill="#000" fill-rule="nonzero" opacity=".1"/>
        <path d="M27.663 23.353a2.379 2.379 0 1 1-4.758.001 2.379 2.379 0 0 1 4.758 0z" fill="#FBBEBE" fill-rule="nonzero"/>
        <path d="M20.217 35.12c-.11.07-.272.047-.407.016-.534-.119-1.124-.204-1.611.024-.001-.086.02-.17.061-.246.07-.118.22-.142.343-.174a3.6 3.6 0 0 1 1.265-.096.172.172 0 0 1 .171.116c.065.114.12.237.178.36z" fill="#000" fill-rule="nonzero" opacity=".1"/>
        <path d="M19.213 31.885c-.118.384-.215.78-.447 1.105a.817.817 0 0 0-.169.296.922.922 0 0 1-.04.238c-.032.066-.101.109-.129.176-.041.096.013.22-.042.31a.461.461 0 0 1-.091.096c-.131.122-.164.315-.167.493-.003.18.015.362-.044.53.507-.303 1.153-.213 1.73-.084.16.036.359.063.463-.066.103-.129.044-.298.058-.453.02-.201.158-.369.243-.552.096-.207.13-.437.203-.653.153-.452.48-.821.69-1.249a1.2 1.2 0 0 0 .137-.474 1.416 1.416 0 0 0-.164-.616 8.424 8.424 0 0 0-.71-1.27c-.123-.179-.333-.511-.523-.224-.153.231-.25.526-.363.78a14.28 14.28 0 0 0-.635 1.617zM27.882 28.155a1.942 1.942 0 0 1-1.554-.614.238.238 0 0 1-.07-.112.226.226 0 0 1 .045-.158c.115-.177.314-.295.406-.486.092-.191.06-.411.07-.62.015-.376.163-.748.175-1.118a1.167 1.167 0 0 0-.02-.282 1.77 1.77 0 0 1-.082-.426c.013-.282.267-.5.309-.778.055-.354-.238-.661-.533-.865a3.177 3.177 0 0 0-.727-.376 2.365 2.365 0 0 0-.488-.118 1.902 1.902 0 0 0-.92.103 1.502 1.502 0 0 0-.341.183.463.463 0 0 0-.153.158.516.516 0 0 0-.04.23c-.006.393.038.81-.15 1.153-.096.183-.259.332-.339.526a.875.875 0 0 0-.06.253c-.01.09-.015.18-.015.27-.005.507 0 1.041.258 1.48.09.133.173.271.247.415a.472.472 0 0 1-.024.46.524.524 0 0 1-.192.144c-.386.185-.831.2-1.23.044a1.557 1.557 0 0 0 .364-1.737 1.025 1.025 0 0 1-.133-.384.975.975 0 0 1 .097-.352c.131-.361.152-.753.058-1.126-.058-.229-.16-.45-.179-.685a2.072 2.072 0 0 1 .023-.532 1.73 1.73 0 0 1 1.185-1.364 1.97 1.97 0 0 1 .15-.045c.233-.052.471-.077.71-.076.533-.017 1.074-.033 1.588.107.302.079.583.223.823.423a1.484 1.484 0 0 1 .51.888c.022.103.038.207.055.31.116.74.232 1.493.108 2.23-.049.289-.134.577-.173.871-.093.677.075 1.351.242 2.006z" fill="#464353" fill-rule="nonzero"/>
        <circle fill="#FFF" fill-rule="nonzero" cx="24.469" cy="28.926" r="1"/>
        <circle fill="#FFF" fill-rule="nonzero" cx="27.485" cy="28.841" r="1"/>
        <path d="m24.469 19.894-.385-.725a.702.702 0 0 1 .08-.08.305.305 0 0 1 .186-.045l.119.85zM25.528 19.01l-.435.644-.248-.706a.786.786 0 0 1 .336-.063c.122.022.24.064.347.125z" fill="#000" fill-rule="nonzero" opacity=".1"/>
        <g opacity=".1" fill="#000" fill-rule="nonzero">
            <path d="M23.876 27.243a.524.524 0 0 1-.192.144c-.341.163-.73.195-1.093.09-.042.052-.088.1-.136.146.398.157.843.14 1.229-.044a.524.524 0 0 0 .192-.144.414.414 0 0 0 .061-.333.341.341 0 0 1-.061.14zM22.833 24.025c.032.126.05.254.055.384a1.915 1.915 0 0 0-.055-.576c-.058-.229-.16-.45-.178-.685 0-.03 0-.06-.005-.09-.005.093-.003.188.005.282.018.235.12.456.178.685zM27.806 25.282c.041-.255.059-.512.052-.77-.003.194-.02.387-.052.577-.049.289-.134.577-.172.87-.02.159-.028.318-.023.476.003-.094.01-.189.023-.283.038-.294.123-.58.172-.87zM22.814 25.694a1.58 1.58 0 0 1-.12-.297.434.434 0 0 0-.012.105c.018.136.063.267.132.385.07.16.111.333.12.509a1.49 1.49 0 0 0-.12-.702zM26.933 24.76c.009.045.015.089.018.133v-.042a1.167 1.167 0 0 0-.02-.282c-.022-.101-.056-.201-.073-.303a.426.426 0 0 0-.008.07c.01.144.038.287.083.425zM26.328 27.345a.506.506 0 0 1-.041-.049.199.199 0 0 0-.028.13.238.238 0 0 0 .069.111c.399.43.97.655 1.554.614l-.048-.192a1.939 1.939 0 0 1-1.506-.614zM27.159 23.378v-.01c.055-.354-.238-.661-.533-.865a3.177 3.177 0 0 0-.727-.376 2.365 2.365 0 0 0-.488-.118 1.902 1.902 0 0 0-.92.103 1.502 1.502 0 0 0-.341.182.463.463 0 0 0-.153.159.516.516 0 0 0-.04.23v.2-.008a.516.516 0 0 1 .04-.23.463.463 0 0 1 .153-.158c.105-.076.22-.137.342-.183.293-.11.609-.145.92-.103.166.022.33.062.487.118.258.094.502.22.727.376.245.165.486.404.533.683zM23.81 23.838c-.097.184-.26.333-.34.527a.875.875 0 0 0-.06.253c-.01.09-.015.18-.015.27v.247-.054c0-.09.005-.181.015-.271a.875.875 0 0 1 .06-.253c.08-.192.24-.343.34-.526.154-.289.151-.62.148-.95.013.261-.038.52-.148.757z"/>
        </g>
        <path d="M27.643 22.745a.28.28 0 0 1-.046.05.44.44 0 0 1-.112.068c-.28.121-.268-.274-.414-.41a.497.497 0 0 0-.325-.095 73.802 73.802 0 0 0-.845-.038 23.72 23.72 0 0 0-1.407-.015c-.225.004-.45.013-.673.028-.26.017-.538.05-.759.174a.804.804 0 0 0-.203.158c-.053.058-.108.13-.181.144a1.73 1.73 0 0 1 1.184-1.363 2.378 2.378 0 0 1 3.267.408c.17.144.306.323.398.526.051.117.09.24.116.365z" fill="#000" fill-rule="nonzero" opacity=".1"/>
        <path d="M27.485 22.671c-.28.121-.268-.274-.414-.41a.497.497 0 0 0-.325-.095 25.608 25.608 0 0 0-2.925-.025c-.347.023-.727.075-.96.332-.06.065-.123.15-.212.147a7.407 7.407 0 0 1-.065-.589.655.655 0 0 1 .011-.22c.024-.083.079-.154.107-.234a.936.936 0 0 0 .029-.315 2.277 2.277 0 0 1 1.12-1.937c.085-.042.163-.095.233-.158a.702.702 0 0 1 .08-.08.305.305 0 0 1 .186-.045h.136a1.24 1.24 0 0 0 .36-.096.786.786 0 0 1 .336-.063c.122.022.24.064.347.125a.843.843 0 0 0 .163.06c.087.02.178.018.265.036.142.036.276.095.398.176.145.079.28.176.4.289.13.149.235.32.309.503.127.254.224.523.288.8.078.397.04.828.224 1.189.112.227.215.478-.091.61z" fill="#FED253" fill-rule="nonzero"/>
        <path d="M22.614 22.37s1.992-1.813 4.958-.31c0 0-3.348-.762-4.958.31z" fill="#000" fill-rule="nonzero" opacity=".1"/>
        <path d="M.912 31.629c-.271-.444-.679-.85-.615-1.354.745.085 1.453-.096 2.136-.412.683-.316 1.317-.727 1.957-1.13.252-.158.502-.314.752-.458.396-.226.789-.48 1.192-.702.576-.317 1.164-.576 1.812-.626.117-.01.235-.012.352-.01.798.016 1.624.23 2.325-.127l.044-.023c.397-.218.687-.589 1.028-.89.245-.212.512-.397.796-.553.518-.288 1.08-.519 1.609-.79a2.44 2.44 0 0 0 .384-.247l.09-.072.02-.017.066-.056.041-.036.042-.039.033-.03.053-.05.006-.007.083-.083.034-.033.058-.061.035-.035c.059-.06.117-.122.177-.181.06-.06.14-.14.212-.207l.07-.061.02-.018.055-.046.026-.022.055-.042.027-.021.082-.059a.601.601 0 0 1 .081-.047l-.18-.435.517-.213 7.13 17.299-.518.213-4.078-9.896-.029.029a8.186 8.186 0 0 1-3.371 2.006h-.008c-.71.214-1.505.366-2.102.764a2.018 2.018 0 0 0-.543.52c-.14.2-.238.427-.384.62-.028.035-.059.07-.09.102a3.34 3.34 0 0 1-.576.457l-.091.063c-.62.435-1.264.833-1.932 1.19a7.62 7.62 0 0 1-1.2.5c-.3.096-.61.166-.911.261a3.57 3.57 0 0 0-.588.237c-.509.266-.9.683-1.27 1.128-.324.39-.631.803-.986 1.158-.223.221-.563.43-.832.301l-.054-.032.023-.044c.212-.445-.05-.994-.4-1.35a2.39 2.39 0 0 0-.113-.11 19.974 19.974 0 0 0-.163-.144c-.3-.258-.62-.498-.829-.832a2.714 2.714 0 0 1-.319-.904c-.096-.452-.16-.918-.406-1.303-.162-.255-.402-.472-.577-.716a1.09 1.09 0 0 1-.211-.494c-.04-.312.106-.618.16-.93a1.16 1.16 0 0 0 .02-.257 1.363 1.363 0 0 0-.227-.643z" fill="url(#b)" fill-rule="nonzero"/>
        <path fill="#D6D8E1" fill-rule="nonzero" d="m23.326 39.59-.509.21-7.01-17.009.51-.21z"/>
        <path d="M1.919 34.608c.24.38.305.837.398 1.282a2.7 2.7 0 0 0 .315.89c.205.327.52.563.814.817l.16.142c.037.034.075.07.11.106.346.35.603.892.394 1.329a.366.366 0 0 1-.022.043.44.44 0 0 0 .053.03c.265.13.599-.076.818-.294.35-.35.652-.755.97-1.139.363-.438.749-.848 1.25-1.11.184-.094.377-.172.576-.232.295-.096.6-.164.896-.257.407-.13.801-.294 1.18-.49a18.498 18.498 0 0 0 1.902-1.172l.09-.061a3.3 3.3 0 0 0 .567-.449c.031-.033.061-.066.089-.102.148-.192.245-.412.384-.609.145-.202.326-.376.534-.511.588-.391 1.369-.541 2.067-.751h.008a8.065 8.065 0 0 0 3.315-1.973.54.54 0 0 0 .166-.244c.03-.135-.044-.27-.114-.39a18.879 18.879 0 0 1-1.875-4.427c-.007-.024-.015-.051-.021-.08-.16-.641-.373-2.14-1.03-1.692-.196.14-.377.298-.543.472-.128.13-.253.263-.384.392-.108.105-.22.204-.34.296-.12.093-.249.174-.384.243-.522.267-1.073.49-1.581.777-.28.153-.543.335-.784.544-.336.296-.62.66-1.011.875l-.042.023c-.69.35-1.502.14-2.287.125a3.45 3.45 0 0 0-.346.009c-.637.048-1.22.303-1.782.615-.396.22-.782.467-1.172.691-.245.142-.491.294-.74.45-.628.397-1.265.812-1.92 1.112-.673.305-1.368.488-2.101.404-.063.495.337.895.604 1.33.128.188.206.406.226.632.003.085-.003.17-.018.253-.054.306-.193.606-.158.914.027.176.098.342.207.484.167.239.402.453.562.703z" fill="#F86D70" fill-rule="nonzero"/>
        <path d="M21.453 36.61s.841.733 1.695 1.124c.853.391.288 1.794.288 1.794s-.904.208-1.537-.672c-.634-.88-.446-2.247-.446-2.247z" fill="#FBBEBE" fill-rule="nonzero"/>
        <path d="M66.806 49.105s-2.229 2.933-4.078 2.957c-1.85.024-2.936 1.235-2.057 1.993.878.757 10.447-.433 10.447-.433s.09-3.605-.738-4.131c-.83-.527-3.574-.386-3.574-.386zM90.773 52.626s.342 2.323-.712 3.907c-1.054 1.585 1.904 2.196 1.904 2.196s2.15.598 2.306-1.525c.156-2.123.105-3.747-.096-3.92-.202-.173-.37-1.367-.37-1.367l-3.032.709z" fill="#444176" fill-rule="nonzero"/>
        <path d="M57.03 57.014s-.078-7.515 7.358-10.569l1.727-3.285.828-2.018a4.91 4.91 0 0 1 3.467-2.926l1.34-.3.414-1.746a4.908 4.908 0 0 1 3.92-3.703 13.73 13.73 0 0 1 2.47-.23c.746.011 1.43.412 1.805 1.057 0 0 7.045-.078 7.357 3.757 0 0 .705 3.522 1.723 4.148 0 0 1.722-.391 3.443 2.114l1.879 6.418s4.93 4.618 3.443 8.84c0 0-2.035 2.895-12.366.938 0 0-11.036 3.363-16.91-1.249-.001.006-9.784 1.884-11.898-1.246z" fill="#A8A8A8" fill-rule="nonzero"/>
        <path d="M61.961 55.84s1.566-2.192 1.487-3.758c-.078-1.566.37-5.38.37-5.38M67.675 49.97s1.565-2.897 1.408-4.462c0 0 1.644-2.978 2.896-2.74M76.285 41.75s4.304-1.565 4.54-2.816M77.85 45.352s4.54-2.035 4.54-2.584h2.268s3.288 4.305 2.897 6.184M83.173 48.482s-4.384-.313-5.95.94C75.657 50.674 72.84 51.3 72.84 51.3s-1.644 3.522-2.27 4.148c-.627.625-1.644 2.818-1.644 2.818M83.173 52.63s.468 1.644 1.095 2.583c.626.94 1.565 4.305 1.565 4.305M90.53 57.405s.993 2.764 1.866 2.791" stroke="#000" opacity=".1"/>
        <path d="M84.022 45.54s2.58.698 3.66 2.388c1.079 1.69 4.374 3.222 4.374 3.222M85.129 37.214s0 3.6 1.017 3.6c1.018 0 3.288.39 3.288.39M80.142 32.938s-.26 6.22-1.59 7.83" stroke="#000" opacity=".1"/>
        <g opacity=".05" fill="#000" fill-rule="nonzero">
            <path d="m94.6 49.656-1.879-6.418c-1.722-2.505-3.444-2.114-3.444-2.114-1.017-.626-1.721-4.149-1.721-4.149-.313-3.835-7.358-3.756-7.358-3.756a2.125 2.125 0 0 0-1.81-1.057c-.332 0-.672.01-1.012.038.192.02.376.047.553.082l.547.94s7.044-.08 7.357 3.756c0 0 .705 3.523 1.723 4.149 0 0 1.721-.392 3.443 2.114l1.879 6.418s4.93 4.618 3.443 8.84c0 0-1.004 1.428-5.18 1.6 5.63.207 6.902-1.6 6.902-1.6 1.487-4.225-3.444-8.843-3.444-8.843zM67.048 58.187a36.547 36.547 0 0 1-5.014.549c1.961.075 4-.138 5.315-.318-.102-.078-.202-.153-.3-.231zM83.955 59.44a32.145 32.145 0 0 1-7.39 1.168c3.607.13 7.025-.621 8.433-.983-.34-.056-.685-.12-1.043-.185z"/>
        </g>
        <path d="M21.411 71.648s2.154-.067 2.802-.529c.649-.462 3.311-1.013 3.472-.273.162.741 3.235 3.685.805 3.705-2.431.02-5.647-.378-6.295-.773-.647-.395-.784-2.13-.784-2.13z" fill="#A8A8A8" fill-rule="nonzero"/>
        <path d="M28.534 74.293c-2.431.02-5.648-.379-6.295-.769-.493-.3-.69-1.379-.756-1.875h-.072s.137 1.736.784 2.13c.648.394 3.865.792 6.295.773.702-.005.944-.255.93-.625-.096.223-.364.362-.886.366z" fill="#000" fill-rule="nonzero" opacity=".2"/>
        <path d="M73.904 66.248s-2.536-.507-3.211-1.184c-.676-.676-3.719-1.858-4.057-1.013-.338.844-4.563 3.718-1.69 4.227 2.873.51 6.76.673 7.606.338.845-.334 1.352-2.368 1.352-2.368z" fill="#A8A8A8" fill-rule="nonzero"/>
        <path d="M64.946 67.96c2.874.506 6.76.672 7.606.337.643-.258 1.09-1.495 1.267-2.07l.085.018s-.508 2.027-1.352 2.366c-.845.338-4.732.169-7.606-.339-.829-.146-1.066-.49-.977-.924.071.287.36.505.977.611z" fill="#000" fill-rule="nonzero" opacity=".2"/>
        <path d="M49.625 11.035h-.603a.423.423 0 1 0 0-.846h-4.889a.423.423 0 1 0 0 .846h.604a.423.423 0 0 0 0 .844h-.845a.423.423 0 0 0 0 .846h4.889a.423.423 0 0 0 0-.846h.844a.423.423 0 1 0 0-.844zM68.613 25.909h-.604a.423.423 0 0 0 0-.845h-4.893a.423.423 0 1 0 0 .845h.603a.423.423 0 0 0 0 .844h-.844a.423.423 0 1 0 0 .846h4.887a.423.423 0 1 0 0-.846h.85a.423.423 0 1 0 0-.844zM40.478 23.157h-.604a.423.423 0 1 0 0-.844h-4.89a.423.423 0 1 0 0 .844h.604a.423.423 0 1 0 0 .845h-.845a.423.423 0 1 0 0 .845h4.888a.423.423 0 1 0 0-.845h.845a.423.423 0 1 0 0-.845h.002z" fill="#C61C2C" fill-rule="nonzero" opacity=".1"/>
    </g>
</svg>
