<svg width="300" height="274" viewBox="0 0 300 274" fill="none" xmlns="http://www.w3.org/2000/svg">
<g clip-path="url(#clip0_806_15)">
<path d="M256.069 125.634C314.646 159.457 314.646 214.291 256.069 248.108C197.492 281.924 102.514 281.931 43.9374 248.108C-14.6393 214.285 -14.6393 159.451 43.9374 125.634C102.514 91.8114 197.492 91.8114 256.069 125.634Z" fill="#F5F5F5"/>
<path d="M288.427 203.451L197.867 255.737C195.808 256.926 192.466 256.926 190.407 255.737L19.8715 157.273C17.8124 156.084 17.8124 154.156 19.8715 152.96L110.431 100.674C112.49 99.4847 115.832 99.4847 117.892 100.674L288.427 199.132C290.486 200.321 290.486 202.249 288.427 203.438V203.451Z" fill="#E0E0E0"/>
<path d="M100.555 215.874C95.1911 218.459 89.4892 219.999 84.1942 222.728C78.8992 225.457 73.9798 228.912 69.6299 232.986C67.8774 234.632 66.1937 236.404 65.0984 238.544C64.0031 240.685 63.5588 243.251 64.3536 245.516C65.1047 247.651 66.8885 249.309 68.9164 250.323C70.9442 251.337 73.2037 251.769 75.4506 252.051C75.8449 252.101 76.2517 252.151 76.596 252.351C76.9715 252.57 77.2281 252.939 77.491 253.29C84.6887 262.929 98.7962 259.155 107.715 254.567C114.005 251.331 120.683 247.482 126.166 243.119C132.394 238.162 135.661 233.706 137.288 230.827C138.922 227.948 139.598 224.875 139.829 223.485C140.38 220.193 137.858 217.045 135.429 214.754C133.383 212.826 130.335 211.687 127.512 212.013C124.601 212.344 121.66 211.956 118.712 212.407C115.845 212.845 112.947 212.538 110.043 212.927C106.732 213.371 103.559 214.429 100.555 215.874Z" fill="#E0E0E0"/>
<path d="M269.739 185.2L264.8 181.864C264.8 181.864 262.622 168.914 264.644 157.542C267.485 141.55 278.513 136.23 282.444 137.901C286.381 139.573 287.22 144.342 279.878 153.467C275.547 158.85 269.889 170.304 269.739 185.194V185.2Z" fill="#326789"/>
<g opacity="0.15">
<path d="M269.739 185.2L264.8 181.864C264.8 181.864 262.622 168.914 264.644 157.542C267.485 141.55 278.513 136.23 282.444 137.901C286.381 139.573 287.22 144.342 279.878 153.467C275.547 158.85 269.889 170.304 269.739 185.194V185.2Z" fill="black"/>
</g>
<path d="M268.043 178.797C268.043 178.797 268.074 178.797 268.093 178.797C268.287 178.772 268.431 178.597 268.406 178.396C266.622 163.344 272.974 147.008 279.891 140.512C280.034 140.374 280.041 140.149 279.903 140.005C279.765 139.861 279.54 139.854 279.396 139.992C272.355 146.608 265.883 163.206 267.692 178.484C267.711 178.666 267.867 178.797 268.043 178.797Z" fill="white"/>
<path d="M282.682 193.931C283.465 194.4 285.762 192.704 286.394 192.291C287.483 191.59 288.365 190.589 288.966 189.449C289.661 188.123 289.861 186.689 289.68 185.2C289.586 184.43 289.386 183.673 289.185 182.921C288.991 182.183 288.791 181.444 288.597 180.712C288.403 179.986 288.209 179.235 288.315 178.49C288.534 176.988 289.893 175.962 291.126 175.079C292.49 174.103 293.911 172.801 293.936 170.992C293.955 169.596 293.26 168.282 292.415 167.168C291.069 165.39 289.699 164.001 290.08 161.585C290.312 160.108 291.007 158.756 291.564 157.367C291.802 156.778 292.021 156.171 292.089 155.539C292.359 153.073 290.312 151.12 287.946 151.227C286.926 151.277 285.924 151.715 285.029 152.19C282.225 153.68 280.523 157.561 277.275 157.967C276.217 158.099 275.14 158.049 274.083 158.186C273.025 158.324 271.942 158.675 271.216 159.457C268.738 162.111 271.61 165.584 270.584 168.507C269.845 170.598 267.793 171.361 266.61 173.233C266.09 174.053 265.959 175.004 266.021 175.974C266.128 177.608 266.34 178.816 267.092 180.643C267.711 182.158 269.545 185.062 269.545 185.062C269.545 185.062 282.576 193.856 282.695 193.931H282.682Z" fill="#326789"/>
<path d="M275.09 189.274H275.103C275.303 189.274 275.46 189.105 275.46 188.911C275.14 174.691 282.144 159.132 287.101 154.663C287.245 154.531 287.258 154.306 287.126 154.156C286.995 154.012 286.769 153.999 286.619 154.131C281.562 158.687 274.421 174.503 274.74 188.924C274.74 189.118 274.903 189.268 275.09 189.274Z" fill="white"/>
<path d="M277.712 171.95C277.75 171.95 277.781 171.95 277.819 171.937C282.413 170.616 288.108 170.472 288.165 170.472C288.365 170.472 288.522 170.303 288.515 170.109C288.515 169.909 288.365 169.753 288.152 169.759C288.096 169.759 282.306 169.903 277.625 171.249C277.437 171.305 277.324 171.499 277.381 171.693C277.425 171.849 277.562 171.95 277.719 171.95H277.712Z" fill="white"/>
<path d="M31.2952 149.937L37.0158 147.365C37.0158 147.365 39.5068 135.924 39.5318 126.867C39.5694 114.143 32.9663 98.164 22.8958 100.743C12.8315 103.321 25.6872 117.579 27.7589 128.588C29.8306 139.591 31.2889 149.944 31.2889 149.944L31.2952 149.937Z" fill="#326789"/>
<path opacity="0.15" d="M31.2952 149.937L37.0158 147.365C37.0158 147.365 39.5068 135.924 39.5318 126.867C39.5694 114.143 32.9663 98.164 22.8958 100.743C12.8315 103.321 25.6872 117.579 27.7589 128.588C29.8306 139.591 31.2889 149.944 31.2889 149.944L31.2952 149.937Z" fill="black"/>
<path d="M34.2679 148.911C34.2679 148.911 34.2617 148.911 34.2554 148.911C34.0739 148.886 33.9487 148.723 33.9738 148.541C37.7541 120.646 25.2426 105.155 25.1112 105.005C24.9923 104.867 25.0173 104.654 25.155 104.542C25.299 104.423 25.5055 104.448 25.6182 104.585C25.7496 104.742 38.4426 120.452 34.6247 148.629C34.5996 148.804 34.4432 148.93 34.2679 148.911Z" fill="white"/>
<path d="M27.6959 151.54L31.7642 149.706C31.7642 149.706 33.2225 141.826 30.2996 131.787C27.7585 123.043 20.0476 115.226 15.6727 116.258C11.2915 117.297 11.0974 120.308 12.8374 123.663C14.5836 127.017 26.3753 135.786 27.6897 151.54H27.6959Z" fill="#326789"/>
<path d="M29.8115 150.901C29.63 150.882 29.4986 150.719 29.5173 150.538C31.3825 132.844 15.9732 119.206 15.8167 119.068C15.679 118.949 15.6665 118.743 15.7854 118.605C15.9043 118.468 16.1108 118.455 16.2485 118.574C16.405 118.712 32.071 132.581 30.1683 150.607C30.1495 150.788 29.9868 150.92 29.8052 150.901H29.8115Z" fill="white"/>
<path d="M281.455 185.413C282.725 186.395 282.588 187.791 281.048 188.674L196.729 237.361C195.032 238.331 192.285 238.331 190.595 237.361L29.4478 144.323C27.8893 143.422 27.7579 142.001 29.0848 141.025C27.5639 142.101 26.3809 144.28 26.3809 146.101V150.157C26.3684 152.109 27.7454 154.494 29.4415 155.47L190.582 248.502C192.278 249.485 195.032 249.485 196.722 248.502L281.042 199.827C282.738 198.857 284.109 196.472 284.109 194.513V190.451C284.109 188.655 282.963 186.508 281.455 185.413Z" fill="#37474F"/>
<path d="M281.041 185.137L119.901 92.0992C118.211 91.1228 115.463 91.1228 113.767 92.0992L29.4475 140.787C27.7514 141.757 27.7576 143.347 29.4475 144.323L190.595 237.361C192.284 238.338 195.032 238.338 196.728 237.361L281.048 188.674C282.744 187.703 282.738 186.114 281.048 185.137H281.041ZM259.179 177.614C260.625 178.453 260.631 179.811 259.179 180.643L182.514 224.912C181.062 225.745 178.709 225.751 177.251 224.912L51.7854 152.479C50.3333 151.64 50.3333 150.275 51.7854 149.443L128.457 105.174C129.909 104.329 131.417 103.847 132.869 104.686L259.185 177.614H259.179Z" fill="#455A64"/>
<path d="M29.0847 141.019C27.5638 142.095 26.3809 144.273 26.3809 146.094V150.15C26.3809 152.109 27.7453 154.488 29.4414 155.464L190.582 248.496C191.433 248.984 192.548 249.228 193.655 249.234V238.087C192.548 238.087 191.433 237.843 190.595 237.355L29.4477 144.323C27.8892 143.422 27.7578 142.001 29.0847 141.025V141.019Z" fill="#263238"/>
<path d="M230.915 211.806C229.087 211.806 227.26 211.406 225.87 210.605C224.449 209.785 223.667 208.664 223.667 207.463C223.667 206.261 224.449 205.141 225.87 204.321C228.649 202.712 233.174 202.718 235.953 204.321C237.374 205.141 238.163 206.261 238.163 207.463C238.163 208.664 237.38 209.785 235.953 210.605C234.564 211.406 232.736 211.806 230.909 211.806H230.915ZM230.915 203.908C229.237 203.908 227.554 204.277 226.277 205.015C225.113 205.685 224.474 206.555 224.474 207.463C224.474 208.37 225.113 209.234 226.277 209.91C228.837 211.387 232.999 211.387 235.559 209.91C236.723 209.24 237.361 208.37 237.361 207.463C237.361 206.555 236.723 205.685 235.559 205.015C234.282 204.277 232.598 203.908 230.921 203.908H230.915Z" fill="#E6E6E6"/>
<path d="M79.6941 121.222C80.827 120.565 80.827 119.5 79.6941 118.85C78.5613 118.192 76.7149 118.192 75.5821 118.85C74.4492 119.507 74.4492 120.571 75.5821 121.222C76.7149 121.879 78.5613 121.879 79.6941 121.222Z" fill="black"/>
<path d="M77.6662 129.095L93.5387 119.932C94.4838 119.388 94.5339 118.524 93.6451 118.011C92.7564 117.498 91.2668 117.523 90.3217 118.074L74.4492 127.237C73.5041 127.781 73.454 128.645 74.3428 129.152C75.2315 129.665 76.7211 129.64 77.6662 129.089V129.095Z" fill="black"/>
<path d="M132.87 104.686C131.424 103.847 129.909 104.335 128.457 105.174L51.7859 149.443C50.3401 150.275 50.3339 151.64 51.7859 152.478L177.251 224.912C178.703 225.751 181.057 225.745 182.515 224.912L259.18 180.643C260.638 179.805 260.632 178.447 259.18 177.614L132.863 104.686H132.87Z" fill="#27DEBF"/>
<path opacity="0.8" d="M132.87 104.686C131.424 103.847 129.909 104.335 128.457 105.174L51.7859 149.443C50.3401 150.275 50.3339 151.64 51.7859 152.478L177.251 224.912C178.703 225.751 181.057 225.745 182.515 224.912L259.18 180.643C260.638 179.805 260.632 178.447 259.18 177.614L132.863 104.686H132.87Z" fill="white"/>
<path opacity="0.8" d="M260.269 145.362C260.269 144.812 259.906 144.267 259.18 143.848L132.863 70.9194C131.417 70.0807 129.903 70.5689 128.451 71.4076L51.7795 115.677C51.0597 116.09 50.6967 116.634 50.6904 117.185C50.6904 117.736 50.6904 122.511 50.6904 123.062C50.6904 123.613 51.0472 124.17 51.7795 124.589L177.245 197.023C178.703 197.862 181.05 197.855 182.508 197.023L259.173 152.754C259.906 152.335 260.269 151.784 260.269 151.239C260.269 150.689 260.269 145.919 260.269 145.369V145.362Z" fill="#E65C4F"/>
<path opacity="0.3" d="M260.269 145.362V151.233C260.269 151.778 259.906 152.328 259.173 152.748L182.515 197.017C181.783 197.436 180.837 197.642 179.88 197.642V191.772C180.837 191.772 181.783 191.565 182.515 191.146L259.173 146.877C259.95 146.432 260.313 145.838 260.256 145.25C260.256 145.287 260.269 145.325 260.269 145.362Z" fill="black"/>
<path d="M260.256 145.237L260.237 145.143C260.237 145.143 260.237 145.093 260.225 145.068C260.243 145.124 260.25 145.181 260.256 145.237Z" fill="#27DEBF"/>
<path opacity="0.2" d="M179.879 191.772V197.643C178.928 197.643 177.977 197.436 177.251 197.017L51.7853 124.583C51.0593 124.157 50.6963 123.606 50.6963 123.056C50.7025 122.511 50.6963 117.798 50.6963 117.191C50.6963 117.736 51.0593 118.286 51.7853 118.706L177.251 191.146C177.977 191.565 178.928 191.772 179.879 191.772Z" fill="black"/>
<path d="M131.261 71.1071C131.724 71.1071 132.144 71.2197 132.557 71.4576L258.873 144.386C259.367 144.668 259.649 145.024 259.649 145.362C259.649 145.694 259.367 146.051 258.867 146.339L182.208 190.608C181.607 190.952 180.756 191.152 179.886 191.152C179.016 191.152 178.171 190.952 177.57 190.608L52.1051 118.174C51.6107 117.886 51.329 117.535 51.329 117.197C51.329 116.859 51.6107 116.509 52.1051 116.221L128.776 71.952C129.765 71.3762 130.554 71.1133 131.267 71.1133M131.261 70.4812C130.322 70.4812 129.377 70.8692 128.457 71.4075L51.7859 115.676C50.3401 116.509 50.3339 117.873 51.7859 118.712L177.251 191.146C177.977 191.565 178.929 191.772 179.88 191.772C180.831 191.772 181.789 191.565 182.515 191.146L259.18 146.877C260.638 146.038 260.632 144.68 259.18 143.848L132.863 70.9193C132.331 70.6126 131.799 70.4875 131.255 70.4875L131.261 70.4812Z" fill="#FAFAFA"/>
<path d="M134.29 129.646L156.834 142.665C158.33 143.529 160.277 143.034 161.178 141.557L173.17 121.942C174.071 120.465 173.427 119.551 171.737 119.895L134.647 127.45C132.951 127.794 132.794 128.776 134.29 129.64V129.646Z" fill="white"/>
<path d="M150.055 82.5669L142.057 87.1859L145.368 99.2593C145.418 99.372 145.499 99.4533 145.587 99.5097C145.881 99.6912 152.146 103.321 152.246 103.378C152.54 103.54 152.953 103.421 153.072 103.046L156.696 86.4224L150.055 82.5669Z" fill="#326789"/>
<path d="M156.696 86.4223L153.072 103.046C152.916 103.547 152.234 103.59 152.008 103.115L148.697 91.0351L156.696 86.416V86.4223Z" fill="#326789"/>
<path opacity="0.4" d="M156.696 86.4223L153.072 103.046C152.916 103.547 152.234 103.59 152.008 103.115L148.697 91.0351L156.696 86.416V86.4223Z" fill="black"/>
<path d="M142.057 87.186L148.698 91.0352L152.002 103.115C152.046 103.202 152.103 103.278 152.171 103.328C151.539 102.971 145.856 99.6725 145.581 99.5035C145.487 99.4472 145.412 99.3658 145.362 99.2531L142.051 87.186H142.057Z" fill="#326789"/>
<path opacity="0.5" d="M142.057 87.186L148.698 91.0352L152.002 103.115C152.046 103.202 152.103 103.278 152.171 103.328C151.539 102.971 145.856 99.6725 145.581 99.5035C145.487 99.4472 145.412 99.3658 145.362 99.2531L142.051 87.186H142.057Z" fill="black"/>
<path d="M173.189 0.22532L121.647 29.9675C121.134 30.2616 120.721 30.9814 120.721 31.5697V100.255C120.721 100.843 121.146 101.556 121.66 101.851L124.977 103.759C125.465 104.041 126.322 104.047 126.836 103.753L178.371 74.0048C178.884 73.7107 179.297 72.9909 179.297 72.4026V3.67396C179.297 3.08562 178.878 2.37211 178.365 2.07794L175.048 0.219061C174.534 -0.0688468 173.702 -0.0688468 173.189 0.22532Z" fill="#326789"/>
<path d="M125.903 103.215V34.4801C125.903 33.8917 126.31 33.172 126.823 32.8778L178.365 3.13565C178.878 2.84148 179.291 3.07932 179.291 3.66765V72.3963C179.291 72.9846 178.878 73.7044 178.365 73.9985L126.83 103.747C126.316 104.041 125.903 103.803 125.903 103.215Z" fill="#326789"/>
<path opacity="0.4" d="M125.903 103.215V34.4801C125.903 33.8917 126.31 33.172 126.823 32.8778L178.365 3.13565C178.878 2.84148 179.291 3.07932 179.291 3.66765V72.3963C179.291 72.9846 178.878 73.7044 178.365 73.9985L126.83 103.747C126.316 104.041 125.903 103.803 125.903 103.215Z" fill="#326789"/>
<path opacity="0.5" d="M126.817 103.759C126.322 104.047 125.459 104.047 124.97 103.759L121.653 101.85C121.14 101.562 120.721 100.849 120.721 100.261V31.5696C120.721 31.2629 120.833 30.9249 121.009 30.6245L126.166 33.5724C125.997 33.8603 125.891 34.1858 125.891 34.4862V103.221C125.891 103.759 126.316 104.054 126.811 103.766L126.817 103.759Z" fill="#326789"/>
<path opacity="0.2" d="M179.279 3.50489C179.204 3.04173 178.828 2.87274 178.365 3.13562L126.83 32.8777C126.573 33.028 126.341 33.2783 126.172 33.5725L121.009 30.6246C121.178 30.3492 121.397 30.1051 121.647 29.9674L173.189 0.225244C173.696 -0.0689224 174.528 -0.0751813 175.048 0.218985L178.365 2.07787C178.828 2.34074 179.223 2.95411 179.285 3.50489H179.279Z" fill="#326789"/>
<path opacity="0.3" d="M155.457 26.2059C155.457 28.1461 154.18 30.4056 152.597 31.2505C151.019 32.0892 149.736 31.2004 149.736 29.2539C149.736 27.3074 151.013 25.0542 152.597 24.2093C154.174 23.3706 155.457 24.2593 155.457 26.2059Z" fill="white"/>
<path opacity="0.5" d="M145.944 32.7964C146.87 33.8729 146.589 36.2262 145.312 38.0476C144.035 39.8689 142.251 40.476 141.319 39.3995C140.386 38.323 140.674 35.9696 141.951 34.1483C143.228 32.327 145.011 31.7199 145.944 32.7964Z" fill="white"/>
<path opacity="0.6" d="M138.971 44.632C140.473 44.4317 141.293 45.9776 140.805 48.0869C140.317 50.1961 138.708 52.0675 137.206 52.2678C135.704 52.4681 134.884 50.9221 135.372 48.8129C135.861 46.7036 137.469 44.8322 138.971 44.632Z" fill="white"/>
<path opacity="0.7" d="M137.206 57.1872C138.708 55.7852 140.317 55.9354 140.805 57.5252C141.293 59.1149 140.473 61.5371 138.971 62.9391C137.469 64.3411 135.861 64.1908 135.372 62.6011C134.884 61.0113 135.704 58.5892 137.206 57.1872Z" fill="white"/>
<path opacity="0.75" d="M141.319 65.6617C142.245 63.5963 144.035 62.2945 145.312 62.7576C146.589 63.2208 146.87 65.2674 145.944 67.3328C145.018 69.3983 143.228 70.7001 141.951 70.237C140.674 69.7738 140.393 67.7272 141.319 65.6617Z" fill="white"/>
<path opacity="0.8" d="M149.743 66.832C149.743 64.8918 151.02 62.6323 152.603 61.7874C154.181 60.9487 155.464 61.8375 155.464 63.784C155.464 65.7305 154.187 67.9837 152.603 68.8286C151.026 69.6673 149.743 68.7786 149.743 66.832Z" fill="white"/>
<path opacity="0.85" d="M159.256 60.2352C158.33 59.1587 158.612 56.8053 159.888 54.984C161.165 53.1627 162.949 52.5556 163.882 53.6321C164.814 54.7086 164.526 57.0619 163.249 58.8833C161.973 60.7046 160.189 61.3117 159.256 60.2352Z" fill="white"/>
<path opacity="0.9" d="M166.229 48.406C164.727 48.6062 163.907 47.0603 164.395 44.9511C164.883 42.8418 166.492 40.9704 167.994 40.7701C169.496 40.5699 170.316 42.1158 169.828 44.225C169.339 46.3343 167.731 48.2057 166.229 48.406Z" fill="white"/>
<path d="M167.994 35.8507C166.492 37.2527 164.883 37.1025 164.395 35.5127C163.907 33.923 164.727 31.5008 166.229 30.0988C167.731 28.6968 169.339 28.847 169.828 30.4368C170.316 32.0265 169.496 34.4487 167.994 35.8507Z" fill="white"/>
<path opacity="0.15" d="M163.882 27.37C162.955 29.4354 161.165 30.7372 159.888 30.2741C158.612 29.8109 158.33 27.7643 159.256 25.6988C160.183 23.6334 161.973 22.3316 163.249 22.7947C164.526 23.2579 164.808 25.3045 163.882 27.37Z" fill="white"/>
<path d="M141.35 86.973C141.393 86.9479 141.437 86.9542 141.469 86.9918C141.5 87.0293 141.519 87.0856 141.519 87.167V88.2999C141.519 88.3812 141.5 88.4563 141.469 88.5314C141.437 88.6065 141.393 88.6566 141.35 88.6879L138.458 90.359C138.414 90.3841 138.37 90.3778 138.339 90.3402C138.308 90.3027 138.289 90.2464 138.289 90.165V83.2489C138.289 83.1738 138.308 83.0925 138.339 83.0174C138.37 82.9423 138.414 82.8922 138.458 82.8609L139.278 82.3915C139.322 82.3665 139.366 82.3727 139.397 82.4103C139.428 82.4478 139.447 82.5041 139.447 82.5855V88.0808L141.35 86.9792V86.973Z" fill="#FAFAFA"/>
<path d="M142.163 83.5119C142.175 83.1051 142.226 82.6983 142.313 82.2914C142.401 81.8846 142.532 81.5091 142.695 81.1523C142.858 80.7956 143.058 80.4764 143.296 80.1822C143.534 79.8943 143.803 79.6627 144.109 79.4812C144.416 79.306 144.685 79.2246 144.923 79.2434C145.161 79.2621 145.361 79.3498 145.524 79.5188C145.687 79.6815 145.818 79.9193 145.906 80.2197C145.993 80.5202 146.043 80.8707 146.056 81.2587C146.062 81.5591 146.068 81.8784 146.068 82.2163C146.068 82.5543 146.068 82.8673 146.056 83.1677C146.043 83.5745 145.993 83.9813 145.906 84.3882C145.818 84.795 145.687 85.1768 145.524 85.5335C145.361 85.8903 145.161 86.2157 144.923 86.5037C144.685 86.7916 144.416 87.0231 144.109 87.1984C143.803 87.3736 143.527 87.455 143.296 87.4425C143.058 87.43 142.864 87.3361 142.695 87.1671C142.532 86.9981 142.401 86.7603 142.313 86.4598C142.226 86.1594 142.175 85.8089 142.163 85.4209C142.157 85.133 142.15 84.82 142.15 84.482C142.15 84.1441 142.15 83.8249 142.163 83.5119ZM144.904 83.781C144.904 83.6496 144.911 83.5057 144.917 83.3429C144.917 83.1865 144.923 83.0237 144.923 82.8547C144.923 82.6857 144.923 82.5355 144.917 82.3791C144.917 82.2288 144.911 82.0912 144.904 81.9722C144.898 81.797 144.873 81.6468 144.835 81.5153C144.798 81.3839 144.748 81.2838 144.685 81.2087C144.623 81.1335 144.541 81.096 144.447 81.0835C144.354 81.0772 144.241 81.1085 144.109 81.1836C143.978 81.2587 143.865 81.3526 143.771 81.4778C143.678 81.5967 143.596 81.7281 143.534 81.8784C143.471 82.0286 143.421 82.185 143.383 82.354C143.346 82.523 143.327 82.6983 143.321 82.886C143.315 83.0112 143.308 83.1552 143.302 83.3054C143.302 83.4618 143.302 83.6183 143.302 83.781C143.302 83.9438 143.302 84.1065 143.302 84.263C143.302 84.4195 143.308 84.5571 143.321 84.6823C143.34 85.0328 143.408 85.2832 143.534 85.4459C143.659 85.6086 143.853 85.6149 144.109 85.4647C144.366 85.3145 144.56 85.0892 144.685 84.7825C144.81 84.4758 144.886 84.1378 144.904 83.7685V83.781Z" fill="#FAFAFA"/>
<path d="M149.305 76.5958C149.386 76.5458 149.449 76.552 149.493 76.6021C149.537 76.6584 149.568 76.7148 149.58 76.7836L150.945 82.7421C150.964 82.8046 150.97 82.8547 150.97 82.886C150.97 82.9486 150.957 83.0112 150.932 83.0738C150.907 83.1364 150.876 83.1802 150.838 83.1989L150.05 83.6559C149.968 83.7059 149.906 83.7059 149.875 83.6684C149.837 83.6308 149.818 83.5807 149.812 83.5307L149.637 82.7421L147.978 83.6997L147.803 84.6886C147.797 84.7512 147.772 84.82 147.734 84.9014C147.696 84.9827 147.64 85.0453 147.559 85.0954L146.77 85.5523C146.733 85.5711 146.701 85.5711 146.676 85.5398C146.651 85.5085 146.639 85.4647 146.639 85.3958C146.639 85.3583 146.645 85.3019 146.664 85.2206L148.022 77.6849C148.041 77.5973 148.066 77.5034 148.11 77.397C148.153 77.2906 148.216 77.2155 148.297 77.1654L149.311 76.5833L149.305 76.5958ZM148.297 81.8596L149.311 81.2775L148.804 78.9993L148.297 81.8596Z" fill="#FAFAFA"/>
<path d="M153.617 74.1049C153.905 73.9359 154.168 73.8608 154.406 73.8671C154.644 73.8796 154.85 73.9672 155.019 74.1299C155.194 74.2927 155.326 74.5305 155.426 74.8434C155.526 75.1564 155.576 75.5257 155.589 75.9513C155.589 76.1015 155.595 76.2329 155.595 76.3581V77.0716C155.595 77.1905 155.595 77.3282 155.589 77.4722C155.576 77.9228 155.52 78.3547 155.426 78.774C155.332 79.1934 155.201 79.5814 155.032 79.9444C154.863 80.3074 154.662 80.6266 154.431 80.9083C154.199 81.1899 153.936 81.4153 153.649 81.578L151.965 82.5544C151.921 82.5794 151.877 82.5731 151.846 82.5356C151.815 82.498 151.796 82.4417 151.796 82.3603V75.4443C151.796 75.3692 151.815 75.2878 151.846 75.2127C151.877 75.1376 151.921 75.0875 151.965 75.0562L153.617 74.0986V74.1049ZM154.431 76.5771C154.406 75.7698 154.124 75.5257 153.58 75.8386L152.941 76.2079V80.2761L153.611 79.8881C154.137 79.5877 154.406 79.0181 154.431 78.1857C154.431 78.0355 154.431 77.8915 154.431 77.7601V76.9965C154.431 76.8651 154.431 76.7274 154.431 76.5834V76.5771Z" fill="#FAFAFA"/>
<path d="M156.784 79.7692C156.74 79.7942 156.697 79.788 156.665 79.7504C156.634 79.7128 156.615 79.6565 156.615 79.5752V72.6591C156.615 72.584 156.634 72.5026 156.665 72.4275C156.697 72.3524 156.74 72.3024 156.784 72.2711L157.604 71.8016C157.648 71.7766 157.692 71.7829 157.723 71.8204C157.754 71.858 157.773 71.9143 157.773 71.9957V78.9117C157.773 78.9931 157.754 79.0682 157.723 79.1433C157.692 79.2184 157.648 79.2685 157.604 79.2998L156.784 79.7692Z" fill="#FAFAFA"/>
<path d="M161.803 76.8774C161.735 76.915 161.678 76.9213 161.634 76.8774C161.591 76.8336 161.559 76.8023 161.553 76.7773L160.12 73.942V77.5597C160.12 77.6348 160.101 77.7161 160.07 77.7912C160.038 77.8663 159.995 77.9164 159.951 77.9477L159.131 78.4171C159.087 78.4422 159.043 78.4359 159.012 78.3984C158.981 78.3608 158.962 78.3045 158.962 78.2231V71.3071C158.962 71.2319 158.981 71.1506 159.012 71.0755C159.043 71.0004 159.087 70.944 159.131 70.919L159.782 70.5435C159.851 70.4997 159.907 70.4997 159.951 70.5435C159.995 70.581 160.02 70.6186 160.032 70.6436L161.459 73.4789V69.8613C161.459 69.7862 161.478 69.7048 161.509 69.6297C161.541 69.5546 161.584 69.5045 161.628 69.4732L162.448 69.0038C162.492 68.9788 162.536 68.985 162.567 69.0226C162.598 69.0601 162.617 69.1164 162.617 69.1978V76.1139C162.617 76.1952 162.598 76.2703 162.567 76.3454C162.536 76.4206 162.492 76.4706 162.448 76.5019L161.797 76.8774H161.803Z" fill="#FAFAFA"/>
<path d="M165.596 68.791C165.453 68.8724 165.334 68.9725 165.24 69.0977C165.146 69.2229 165.064 69.3543 165.008 69.5045C164.946 69.6547 164.902 69.8112 164.877 69.9802C164.845 70.1492 164.827 70.3182 164.814 70.4872C164.808 70.5873 164.802 70.7187 164.802 70.8815C164.802 71.0442 164.802 71.2195 164.802 71.3947C164.802 71.57 164.802 71.7389 164.802 71.9079C164.802 72.0707 164.808 72.2021 164.814 72.2897C164.82 72.4462 164.839 72.5964 164.87 72.7278C164.902 72.8593 164.946 72.9657 165.008 73.047C165.071 73.1284 165.146 73.1722 165.246 73.1847C165.346 73.1973 165.459 73.1597 165.596 73.0846C165.703 73.022 165.809 72.9406 165.903 72.8405C165.997 72.7404 166.085 72.6277 166.154 72.49C166.222 72.3586 166.279 72.2021 166.323 72.0269C166.366 71.8516 166.385 71.6576 166.385 71.4448L165.859 71.7452C165.816 71.7702 165.772 71.764 165.74 71.7264C165.709 71.6889 165.69 71.6325 165.69 71.5512V70.4183C165.69 70.3432 165.709 70.2618 165.74 70.1867C165.772 70.1116 165.816 70.0616 165.859 70.0303L167.374 69.1603C167.418 69.1353 167.462 69.1415 167.493 69.1791C167.524 69.2166 167.543 69.2729 167.543 69.3543V70.725C167.543 71.1819 167.493 71.62 167.393 72.0456C167.293 72.465 167.155 72.853 166.98 73.2098C166.804 73.5665 166.598 73.8795 166.366 74.1486C166.128 74.4177 165.878 74.6368 165.603 74.7933C165.302 74.9685 165.033 75.0436 164.802 75.0248C164.564 75.0061 164.363 74.9122 164.201 74.7432C164.032 74.5742 163.907 74.3426 163.819 74.0359C163.731 73.7355 163.681 73.3913 163.669 73.0032C163.663 72.7153 163.656 72.4024 163.656 72.0707C163.656 71.7389 163.656 71.4135 163.669 71.1005C163.675 70.7062 163.725 70.2994 163.819 69.8926C163.913 69.4857 164.038 69.104 164.201 68.7472C164.363 68.3904 164.564 68.065 164.802 67.7708C165.039 67.4829 165.309 67.2451 165.609 67.0761C165.903 66.9071 166.16 66.832 166.398 66.8383C166.629 66.8508 166.829 66.9196 166.992 67.0511C167.155 67.1825 167.28 67.3577 167.374 67.5705C167.468 67.7833 167.518 68.0149 167.524 68.2465C167.524 68.3091 167.518 68.3717 167.487 68.4343C167.455 68.4968 167.424 68.5407 167.387 68.5594L166.554 69.0414C166.492 69.0789 166.441 69.0727 166.41 69.0289C166.373 68.985 166.341 68.9412 166.31 68.8974C166.254 68.8035 166.172 68.7284 166.072 68.6784C165.972 68.6283 165.822 68.6658 165.615 68.7785L165.596 68.791Z" fill="#FAFAFA"/>
<path d="M108.942 250.054C105.024 251.888 94.3209 248.452 86.1155 244.183C77.9102 239.915 71.6638 233.675 73.6041 225.213C73.6041 225.213 80.1446 220.231 90.6657 223.629C101.187 227.034 118.505 244.377 108.942 250.048V250.054Z" fill="#263238"/>
<path d="M131.235 223.836C131.235 223.905 131.223 223.98 131.217 224.049C131.192 224.305 131.154 224.549 131.11 224.806C131.085 224.981 131.054 225.163 131.016 225.338C130.785 226.658 130.416 227.954 129.946 229.218C129.89 229.381 129.821 229.544 129.758 229.7C129.596 230.101 129.427 230.501 129.239 230.896C129.145 231.09 129.051 231.29 128.951 231.49C128.732 231.922 128.494 232.354 128.25 232.78C128.162 232.924 128.081 233.068 127.993 233.205C127.925 233.324 127.843 233.443 127.768 233.562C127.662 233.731 127.562 233.887 127.449 234.05C127.374 234.169 127.292 234.276 127.211 234.394C127.105 234.545 126.998 234.695 126.886 234.845C126.767 235.008 126.648 235.171 126.523 235.327C125.972 236.041 125.365 236.729 124.72 237.367C124.564 237.53 124.401 237.687 124.238 237.837C124.088 237.981 123.938 238.125 123.781 238.262C123.268 238.732 122.73 239.176 122.166 239.589C120.996 240.466 119.913 241.273 118.899 242.03C116.458 243.845 114.362 245.354 112.183 246.762C111.82 246.994 111.457 247.225 111.082 247.457C110.894 247.576 110.713 247.682 110.525 247.801C110.149 248.026 109.761 248.258 109.38 248.483C108.991 248.708 108.591 248.934 108.19 249.159C107.777 249.384 107.37 249.616 106.939 249.841C105.655 250.524 104.272 251.225 102.72 251.963C91.7858 257.183 79.3307 255.693 79.6374 248.089C71.8013 250.067 60.8232 245.867 64.0152 237.887C70.6371 222.791 90.459 214.31 95.973 207.938L127.618 209.566C130.34 214.692 131.473 219.48 131.229 223.836H131.235Z" fill="#B16668"/>
<path opacity="0.22" d="M79.6432 248.089C80.4756 240.922 85.9146 237.392 90.5962 233.925C95.2778 230.458 105.104 224.437 105.104 224.437C105.104 224.437 100.216 225.576 95.7285 220.963C95.7285 220.963 95.91 223.848 98.8829 225.814C98.8829 225.814 85.2762 233.6 81.2079 240.19C78.6918 244.271 79.6432 248.089 79.6432 248.089Z" fill="black"/>
<path d="M127.624 209.566C127.624 209.566 131.911 214.854 132.355 222.446C132.8 230.032 129.364 235.915 120.921 242.256C112.477 248.596 108.947 250.054 108.947 250.054C108.947 250.054 111.094 243.144 101.318 235.772C91.5477 228.399 78.1349 222.69 73.6035 225.219C73.6035 225.219 77.0584 221.345 82.7853 217.308C88.5121 213.277 94.8962 207.945 94.8962 207.945L127.624 209.572V209.566Z" fill="black"/>
<path opacity="0.3" d="M127.624 209.566C127.624 209.566 131.911 214.854 132.355 222.446C132.8 230.032 129.364 235.915 120.921 242.256C112.477 248.596 108.947 250.054 108.947 250.054C108.947 250.054 111.094 243.144 101.318 235.772C91.5477 228.399 78.1349 222.69 73.6035 225.219C73.6035 225.219 77.0584 221.345 82.7853 217.308C88.5121 213.277 94.8962 207.945 94.8962 207.945L127.624 209.572V209.566Z" fill="#E65C4F"/>
<path d="M81.5276 199.827C81.0269 195.727 81.1395 192.848 81.3523 192.347C82.5728 189.443 83.5617 188.536 85.3267 185.619C88.356 180.606 93.626 172.857 96.5989 169.208C98.9773 166.292 102.958 166.023 106.256 166.592C108.147 166.918 104.735 173.859 102.852 179.298L91.6482 194.97C91.3165 195.427 90.5904 196.328 90.6468 196.885L90.1586 205.134L86.735 207.85C86.735 207.85 82.1848 205.222 81.5276 199.82V199.827Z" fill="#B16668"/>
<path d="M82.3285 201.235L84.1686 201.848L86.9913 200.402L88.8314 199.545L89.7202 198.518L89.5074 195.32C89.4949 195.208 89.5011 195.095 89.5074 194.982L82.6289 195.796C82.0593 195.689 81.5524 195.915 81.252 196.766C81.3083 197.68 81.3959 198.706 81.5336 199.833C81.5899 200.096 81.6588 200.34 81.7276 200.59C82.0468 200.984 82.3347 201.241 82.3347 201.241L82.3285 201.235Z" fill="#9A4A4D"/>
<path d="M117.228 167.393C128.551 168.745 125.772 171.042 127.631 174.967C129.045 177.958 129.064 181.426 127.981 184.555L123.469 199.564L127.618 209.572C114.612 216.832 98.7899 214.41 94.8781 209.109C94.7153 207.982 95.9296 195.727 96.5492 189.988C93.5011 187.409 92.6875 182.039 93.9142 179.248C96.8434 172.588 102.896 166.273 105.981 166.523L117.228 167.393Z" fill="#BBE4FF"/>
<path opacity="0.1" d="M127.624 209.565C127.142 209.835 126.66 210.079 126.172 210.323C117.459 214.648 107.771 214.867 101.312 212.933C106.325 213.571 110.95 213.196 114.48 212.363C118.755 211.349 121.465 207.031 120.332 202.787C120.288 202.624 120.245 202.487 120.201 202.38C119.95 201.779 119.468 201.423 118.955 201.047C118.542 200.747 118.135 200.334 118.129 199.827C118.129 199.482 118.311 199.176 118.492 198.882C119.781 196.816 121.284 194.801 121.841 192.429C122.886 187.985 123.067 183.516 121.734 179.072C121.722 179.028 121.709 178.985 121.697 178.941L127.229 175.786C127.229 175.786 127.605 176.049 128.2 176.469C128.5 177.445 128.675 178.453 128.725 179.485C128.738 179.748 128.738 180.011 128.732 180.274C128.732 180.399 128.732 180.518 128.725 180.643C128.719 180.862 128.7 181.081 128.682 181.3C128.663 181.476 128.644 181.651 128.625 181.82C128.6 182.008 128.575 182.189 128.544 182.377C128.506 182.602 128.456 182.821 128.406 183.047C128.375 183.191 128.35 183.328 128.312 183.472C128.218 183.842 128.112 184.205 127.987 184.561L123.474 199.57L127.624 209.578V209.565Z" fill="black"/>
<path d="M109.524 131.962C101.206 130.09 93.6763 134.935 94.6965 143.272C95.3913 148.93 101.124 162.242 109.023 162.242L114.249 163.582C120.395 163.582 124.407 158.537 126.122 149.011C127.925 138.978 118.63 134.008 109.53 131.956L109.524 131.962Z" fill="#263238"/>
<path d="M99.6852 139.929C98.8591 140.361 96.318 143.215 96.9939 152.723C97.551 160.565 99.9356 162.618 101.219 163.175C102.495 163.732 104.961 163.394 107.365 162.993V166.592C107.365 166.592 104.054 170.441 104.26 172.601C104.467 174.76 108.836 174.929 112.147 173.164C116.065 171.074 117.73 167.468 117.73 167.468L117.667 157.78C117.667 157.78 118.443 158.643 120.433 157.486C123.181 155.883 123.901 151.878 122.361 150.313C120.821 148.748 116.597 152.303 116.597 152.303C116.446 150.77 115.608 149.218 112.028 147.672C108.698 146.238 101.807 145.581 99.6852 139.936V139.929Z" fill="#B16668"/>
<path d="M97.5827 148.617L99.7796 147.572C99.5105 146.952 98.8032 146.683 98.1961 146.971C97.589 147.259 97.3136 147.997 97.5827 148.623V148.617Z" fill="#263238"/>
<path d="M106.52 147.703L108.698 149.08C109.104 148.485 108.942 147.703 108.341 147.321C107.74 146.939 106.926 147.115 106.52 147.703Z" fill="#263238"/>
<path d="M117.316 149.205L117.179 154.012C115.82 154.018 114.756 152.948 114.794 151.621C114.831 150.294 115.958 149.211 117.316 149.205Z" fill="#263238"/>
<path d="M121.422 138.703L121.822 133.908C123.174 133.977 124.182 135.104 124.076 136.431C123.963 137.758 122.78 138.772 121.422 138.703Z" fill="#263238"/>
<path d="M122.361 138.058L126.692 135.968C127.318 137.169 126.861 138.609 125.666 139.185C124.471 139.76 122.987 139.253 122.361 138.058Z" fill="#263238"/>
<path d="M105.669 151.158C105.637 151.759 106.082 152.266 106.657 152.291C107.233 152.316 107.728 151.853 107.759 151.258C107.79 150.657 107.346 150.15 106.77 150.125C106.194 150.1 105.7 150.563 105.669 151.158Z" fill="#263238"/>
<path d="M107.571 157.498L105.355 158.6C105.65 159.238 106.388 159.507 107.002 159.2C107.615 158.894 107.872 158.13 107.577 157.498H107.571Z" fill="#9A4A4D"/>
<path d="M98.2585 151.039C98.2272 151.602 98.6465 152.084 99.191 152.109C99.7356 152.134 100.199 151.696 100.23 151.133C100.261 150.57 99.842 150.088 99.2974 150.063C98.7529 150.038 98.2898 150.476 98.2585 151.039Z" fill="#263238"/>
<path d="M103.053 150.307L103.41 156.246L100.205 155.545L103.053 150.307Z" fill="#9A4A4D"/>
<path d="M107.358 162.993C109.887 162.662 115.082 161.166 115.895 159.113C115.895 159.113 115.626 160.402 114.074 161.735C112.522 163.068 107.358 164.564 107.358 164.564V162.993Z" fill="#9A4A4D"/>
<path d="M81.4891 191.283H81.4703L82.2714 190.595V190.607C82.4529 190.463 82.7346 190.413 83.0976 190.514L91.7912 192.879C92.5986 193.098 93.4685 193.918 93.7439 194.707L99.9965 212.751C100.14 213.171 100.084 213.49 99.8839 213.671H99.8901L99.064 214.385V214.372C98.8825 214.523 98.6008 214.573 98.2315 214.473L89.538 212.107C88.7306 211.888 87.8606 211.068 87.5852 210.279C86.3585 206.73 82.5593 195.777 81.3326 192.235C81.1761 191.79 81.2575 191.459 81.4891 191.283Z" fill="#455A64"/>
<path d="M99.1959 213.44L92.9433 195.395C92.6679 194.607 91.7979 193.787 90.9905 193.568L82.2969 191.202C81.4895 190.983 81.0577 191.446 81.3331 192.235C82.5598 195.784 86.3589 206.737 87.5857 210.279C87.8611 211.068 88.731 211.888 89.5384 212.107L98.232 214.473C99.0394 214.692 99.4713 214.228 99.1959 213.44Z" fill="#263238"/>
<path d="M91.9355 194.069C92.3862 194.425 92.7742 194.92 92.9432 195.395L99.2021 213.433C99.3398 213.84 99.296 214.153 99.1145 214.341L99.8906 213.671H99.8843C100.091 213.484 100.147 213.164 100.003 212.745L93.7444 194.694C93.5941 194.25 93.2374 193.799 92.818 193.443L91.9355 194.069Z" fill="#37474F"/>
<path d="M83.6865 199.038C84.1935 200.559 86.0836 201.648 89.0503 202.349C92.017 203.05 93.6569 206.198 93.1812 207.156C92.6993 208.114 87.9112 209.002 85.996 208.733C84.0808 208.458 82.1531 205.691 81.571 204.834C80.9889 203.976 81.0452 198.281 81.4333 197.33C81.9903 195.959 82.7977 196.46 82.7977 196.46L83.6927 199.044L83.6865 199.038Z" fill="#B16668"/>
<path d="M93.1811 207.156C93.663 206.198 92.0169 203.05 89.0502 202.349C88.0739 202.118 87.2352 201.848 86.5217 201.542C86.5217 201.542 86.0335 203.726 86.5217 205.842C86.8847 207.413 86.265 207.669 84.9569 207.344C83.6488 207.018 81.5771 204.828 81.5771 204.828C82.1592 205.685 84.087 208.458 86.0022 208.727C87.9174 208.996 92.7117 208.114 93.1873 207.15L93.1811 207.156Z" fill="#9A4A4D"/>
<path d="M124.194 194.607L124.882 201.942L133.388 210.166C136.086 209.628 136.161 207.187 136.098 206.367C136.042 205.554 135.479 196.773 134.684 190.313C133.895 183.854 133.595 174.541 131.392 171.8C129.182 169.058 122.028 168.207 122.028 168.207C122.028 168.207 117.735 174.366 122.354 182.077L124.194 194.607Z" fill="#B16668"/>
<path d="M124.776 200.816C124.776 200.816 108.934 202.625 105.886 202.193C102.901 201.767 101.105 201.554 99.0767 200.171C96.8861 198.675 95.4778 197.336 94.8394 197.868L96.3666 202.274C96.5481 202.787 94.9897 203.125 91.879 202.412C88.7683 201.692 87.5166 199.883 86.7092 200.947C86.271 201.523 86.3587 204.239 87.6856 206.173C88.7996 207.794 90.502 209.422 93.3623 210.167C98.7012 211.556 102.613 209.766 106.875 209.941C111.144 210.123 127.304 211.763 133.382 210.167C133.382 210.167 137.65 204.634 134.039 201.755C131.254 199.533 124.769 200.822 124.769 200.822L124.776 200.816Z" fill="#B16668"/>
<path d="M124.65 199.47L124.776 200.816C124.776 200.816 128.074 200.784 131.028 202.568C131.028 202.568 129.263 200.24 124.65 199.47Z" fill="#9A4A4D"/>
</g>
<defs>
<clipPath id="clip0_806_15">
<rect width="300" height="273.475" fill="white"/>
</clipPath>
</defs>
</svg>
